<?xml version="1.0" encoding="UTF-8"?>
<svg id="Lag_2" data-name="Lag 2" xmlns="http://www.w3.org/2000/svg" viewBox="0 0 1901.05 1097.75">
  <defs>
    <style>
      .cls-1, .cls-2, .cls-3 {
        stroke: #ef7b32;
      }

      .cls-1, .cls-2, .cls-3, .cls-4, .cls-5, .cls-6 {
        fill: none;
        stroke-miterlimit: 10;
      }

      .cls-1, .cls-4 {
        stroke-width: 3px;
      }

      .cls-2, .cls-5 {
        stroke-width: 3.07px;
      }

      .cls-3, .cls-6 {
        stroke-width: 3.07px;
      }

      .cls-4, .cls-5, .cls-6 {
        opacity: .4;
        stroke: #f8c576;
      }
    </style>
  </defs>
  <g id="Lag_1-2" data-name="Lag 1">
    <g>
      <path class="cls-3" d="m1807.03,1097.12c6.11-13.49,47.09-107.92,0-195.3-44.58-82.74-139.11-105.31-160.53-110.43-51.81-12.38-65.02,1.67-110.43-15.34-9.5-3.56-97.07-37.6-112.48-104.3-17.85-77.28,67.69-170.27,154.4-207.57,105.74-45.49,170.61,10.16,222.91-40.9,54.14-52.85,49.58-175.9-3.07-239.27-30.09-36.21-61.31-35.39-116.57-91-32.47-32.68-53.27-64.74-65.44-85.89"/>
      <path class="cls-1" d="m226.5,1091.69c78.03,2.74,141.16-29.95,157-78,1.74-5.28,11.38-36.46-4-64-16.43-29.42-46.21-27.44-101-53-37.01-17.27-80.06-37.36-105-77-18.94-30.1-36.07-85.2-15-129,41.95-87.19,197.22-50.4,231-135,16.6-41.57-5.99-87.79-10-96-4.37-8.95-20.67-39.66-95-80-77.14-41.86-92.71-26.75-148-61-24.45-15.15-76.13-47.16-104-108C14.33,171.04,10.58,128.52,4.5,59.69,2.72,39.51,1.91,22.82,1.5,11.69"/>
      <path class="cls-4" d="m249.54,1091.91c78.03,2.74,141.16-29.95,157-78,1.74-5.28,11.38-36.46-4-64-16.43-29.42-46.21-27.44-101-53-37.01-17.27-80.06-37.36-105-77-18.94-30.1-36.07-85.2-15-129,41.95-87.19,197.22-50.4,231-135,16.6-41.57-5.99-87.79-10-96-4.37-8.95-20.67-39.66-95-80-77.14-41.86-92.71-26.75-148-61-24.45-15.15-76.13-47.16-104-108-18.16-39.65-21.92-82.17-28-151-1.78-20.18-2.59-36.87-3-48"/>
      <path class="cls-6" d="m1867.09,1097.06c6.11-13.49,47.09-107.92,0-195.3-44.58-82.74-139.11-105.31-160.53-110.43-51.81-12.38-65.02,1.67-110.43-15.34-9.5-3.56-97.07-37.6-112.48-104.3-17.85-77.28,67.69-170.27,154.4-207.57,105.74-45.49,170.61,10.16,222.91-40.9,54.14-52.85,49.58-175.9-3.07-239.27-30.09-36.21-61.31-35.39-116.57-91-32.47-32.68-53.27-64.74-65.44-85.89"/>
      <path class="cls-5" d="m701.73,1090.07c12.11-3.18,207.03-57.89,264.83-248.47,29.27-96.49,23.84-229.29-54.19-314.93-71.69-78.68-195.69-107.68-273.01-125.77-44.27-10.36-89.97-16.74-113.5-54.19-22.18-35.3-16.4-85.06,3.07-119.63,27.94-49.61,81.43-63.28,103.27-68.51,77.93-18.64,137.57,14.15,211.66,40.9,98.69,35.63,288.18,104.05,409.01,27.61,49.66-31.42,104.73-98.06,122.7-178.94,4.32-19.44,5.71-36.15,6.14-48.06"/>
      <path class="cls-2" d="m648.36,1090.05c12.11-3.18,207.03-57.89,264.83-248.47,29.27-96.49,23.84-229.29-54.19-314.93-71.69-78.68-195.69-107.68-273.01-125.77-44.27-10.36-89.97-16.74-113.5-54.19-22.18-35.3-16.4-85.06,3.07-119.63,27.94-49.61,81.43-63.28,103.27-68.51,77.93-18.64,137.57,14.15,211.66,40.9,98.69,35.63,288.18,104.05,409.01,27.61,49.66-31.42,104.73-98.06,122.7-178.94,4.32-19.44,5.71-36.15,6.14-48.06"/>
    </g>
  </g>
</svg>