<?xml version="1.0" encoding="UTF-8"?>
<svg id="Lag_2" data-name="Lag 2" xmlns="http://www.w3.org/2000/svg" viewBox="0 0 108.5 102.9">
  <defs>
    <style>
      .cls-1 {
        fill: #7f5849;
      }

      .cls-2 {
        fill: none;
        stroke: #7f5849;
        stroke-miterlimit: 10;
      }
    </style>
  </defs>
  <g id="Lag_1-2" data-name="Lag 1">
    <path class="cls-2" d="M107.99,51.76c-.55,30.71-33.11,55.15-63.52,49.93C20.77,97.62,.38,75.86,.5,51.76,.66,19.8,36.86-5.72,68.09,1.84c21.7,5.25,40.33,26.3,39.9,49.93Z"/>
    <path class="cls-2" d="M104.6,51.37c-.52,28.27-30.84,50.77-59.16,45.96-22.08-3.75-41.07-23.78-40.96-45.96C4.63,21.95,38.34-1.55,67.44,5.41c20.21,4.83,37.56,24.21,37.17,45.96Z"/>
    <path class="cls-1" d="M54.21,27.92v1h0c3.82,0,7.52,1.24,10.69,3.59,7.61,5.64,9.56,15.95,4.34,22.98-2.88,3.89-7.46,6.12-12.55,6.12-3.83,0-7.52-1.24-10.7-3.59-7.61-5.64-9.56-15.95-4.34-22.98,2.88-3.89,7.46-6.12,12.55-6.12v-1m0,0c-5.19,0-10.18,2.23-13.36,6.53-5.55,7.49-3.51,18.4,4.55,24.38,3.44,2.55,7.42,3.79,11.29,3.79,5.19,0,10.18-2.23,13.36-6.53,5.55-7.49,3.51-18.4-4.55-24.38-3.44-2.55-7.42-3.79-11.29-3.79h0Z"/>
    <path class="cls-1" d="M54.22,25.36v1c4.39,0,8.63,1.42,12.26,4.12,4.24,3.14,7.09,7.62,8.02,12.62,.93,4.97-.15,9.85-3.04,13.75-3.31,4.47-8.56,7.03-14.41,7.03-4.39,0-8.63-1.42-12.26-4.12-4.24-3.14-7.09-7.62-8.02-12.62-.93-4.97,.15-9.85,3.04-13.75,3.31-4.47,8.56-7.03,14.41-7.03v-1m0,0c-5.91,0-11.59,2.55-15.21,7.43-6.32,8.53-4,20.96,5.18,27.77,3.92,2.91,8.46,4.32,12.86,4.32,5.91,0,11.59-2.55,15.21-7.43,6.32-8.53,4-20.96-5.18-27.77-3.92-2.91-8.46-4.32-12.86-4.32h0Z"/>
    <path class="cls-2" d="M73.77,54.78c1.58,1.42,3.04,2.42,4.19,3.11,2.41,1.45,3.8,1.77,4.19,3.11,.31,1.06-.1,2.41-1.03,3.14-1.11,.87-2.54,.53-2.92,.43-1.41-.34-2.07-1.27-3.36-2.49-.91-.87-2.28-2-4.19-3.11"/>
    <path class="cls-2" d="M36.07,74.53c-1.36,1.67-3.54,1.87-3.91,1.9-4.52,.33-7.65-5.16-8.16-6.06-2.82-4.95-1.63-10.2-1.44-10.22,.13-.01,0,2.2,1.55,4.15,.67,.85,1.98,2.05,2.63,1.72,.85-.43-.34-3.01-.11-7.26,.15-2.73,.85-5.64,1.5-5.65,.66,0,.68,3.03,2.79,7.28,.71,1.43,2.14,4,2.7,3.8,.67-.24-.51-4.19-.19-4.29,.54-.16,6.25,10.19,2.64,14.62Z"/>
  </g>
</svg>