<?xml version="1.0" encoding="UTF-8"?>
<svg id="Lag_2" data-name="Lag 2" xmlns="http://www.w3.org/2000/svg" viewBox="0 0 804.7 550.17">
  <defs>
    <style>
      .cls-1 {
        stroke-width: .77px;
      }

      .cls-1, .cls-2 {
        fill: none;
        stroke: #7f5849;
        stroke-miterlimit: 10;
      }

      .cls-2 {
        stroke-width: 1.11px;
      }

      .cls-3 {
        fill: #7f5849;
        font-family: BaskervilleURW-Reg, 'Baskerville URW';
        font-size: 97.29px;
      }
    </style>
  </defs>
  <g id="Lag_1-2" data-name="Lag 1">
    <g>
      <path class="cls-2" d="m54.96,549.32c-1.75.22-23.6,2.7-39.36-11.43,0,0-1.51-1.35-2.9-2.87-20.84-22.87-8.53-84.75-8.53-84.75,11.03-55.47,24.23-55.27,24.13-86.35-.13-41.09-23.18-68.8-19.05-71.11,3.54-1.98,21.93,17.59,31.74,43.17,8.06,21.03,7.93,39.87,7.62,59.68-.49,30.62-6.15,50.56-5.08,50.79,1.43.31,16.69-34.17,19.05-80,2.2-42.83-8.73-59.14,3.81-88.89,8.83-20.93,24.58-37.36,27.94-35.55,3.33,1.79-8.13,20.18-13.97,49.52-2.93,14.73-1.78,29.68-.48,59.39,1.48,33.81,3.46,33.63,3.02,52.35-.78,33.76-7.51,46.97-2.54,49.52,7.1,3.64,31.16-17.98,38.09-45.71,3.52-14.07,1.72-26.06,0-36.82-5.41-33.88-21.11-50.71-17.78-53.33,4.01-3.15,33.84,15.72,43.17,46.98,5.11,17.11,2.17,31.54-2.54,54.6-2.58,12.64-7.34,35.08-21.59,62.22-16.62,31.64-33.93,64.62-64.76,68.57Z"/>
      <path class="cls-2" d="m34.64,521.38c-12.24-6.21-16.02-21.08-19.05-33.01-8.67-34.13,4.18-67.77,8.89-67.3,5.11.51.67,41.13,10.16,43.17,11.16,2.4,31.16-50.77,34.28-49.52,3.41,1.36-23.07,63.52-12.7,69.84,10.67,6.5,50.87-51.87,60.95-45.71,6.52,3.98-.49,34.38-19.05,55.87-14.39,16.67-43.39,36.87-63.49,26.67Z"/>
      <g>
        <polyline class="cls-2" points="753.81 60.17 504.3 170.34 422.27 199.38 337.65 225.29 340.39 251.35 432.27 209.8 502.36 183.97 763.91 65.15"/>
        <path class="cls-2" d="m321.45,269.07l-.4,1.77h0c-4.18,4.11-8.99,7.54-14.23,10.16l-9.32,4.66-8.27,7.68-6.97,20.02-5.83,9.33c-12.26,19.62-26.64,37.84-42.89,54.31l-4.26,4.32-24.51,15.05-5.7,1.43c-21.91,5.52-44.4,8.36-67,8.48h0s-28.58-12.88-28.58-12.88h0c-15.55-11.91-29.41-25.9-41.17-41.56l-1.08-1.44h0c-7.66-17.42-13.43-35.62-17.19-54.28l-2.1-10.42h0c1.59-15.45,5.75-30.53,12.3-44.61l6.76-14.51,22.32-25.03,26.87-14.17,44.41-9.21h0c21.24,1.53,42.19,5.86,62.31,12.86h0c6.48,2.26,12.75,5.04,18.77,8.34l25.64,14.04,3.23,2.55c2.95,2.33,6.04,4.46,9.27,6.39h0s6.14-6.32,6.14-6.32l8.98-.94,9.21,1.3,12.11-3.54h0c6.12,2.8,9.92,9.04,9.61,15.76l-.7,15.07h0c3.42,8.01,4.22,16.9,2.29,25.39Z"/>
        <polygon class="cls-2" points="340.89 256.14 328.37 266.54 316.34 267.8 302.87 245.1 306.46 221.89 317.95 213.22 336.96 218.69 340.89 256.14"/>
        <path class="cls-2" d="m196.06,367.68c-4.68,3.04-18.87,11.38-38.19,9.9-25.82-1.98-40.86-20-43.48-23.24"/>
        <path class="cls-2" d="m188.61,382.83c-8.47,3.46-20.63,6.92-35.12,6.17-43.58-2.25-69.07-40.54-72.47-45.83"/>
        <line class="cls-1" x1="790" y1="23.88" x2="767.06" y2="45.01"/>
        <line class="cls-1" x1="770.5" y1="52.74" x2="800.34" y2="39.45"/>
        <line class="cls-1" x1="774.9" y1="62.62" x2="804.63" y2="56.75"/>
      </g>
    </g>
    <text class="cls-3" transform="translate(510.42 81.09)"><tspan x="0" y="0">2018</tspan></text>
  </g>
</svg>