<?xml version="1.0" encoding="UTF-8"?>
<svg id="Lag_1" data-name="Lag 1" xmlns="http://www.w3.org/2000/svg" viewBox="0 0 587.64 148.72">
  <defs>
    <style>
      .cls-1 {
        fill: none;
        stroke: #80594a;
        stroke-miterlimit: 10;
      }
    </style>
  </defs>
  <rect class="cls-1" x=".5" y="123.94" width="586.64" height="24.27"/>
  <path class="cls-1" d="m144.35,14.72c-.1,4.4-27.44,7.91-49.62,7.63-20.73-.26-47.03-3.96-47.08-8.27-.05-4.23,25.13-8.97,47.71-8.91,23.31.06,49.09,5.25,48.99,9.54Z"/>
  <path class="cls-1" d="m47.65,14.09c-2.58,13.13-5.34,33.24-3.82,57.89,1.3,21.1,4.58,26.78,5.73,28.63,14.75,23.76,60.26,31.04,82.71,11.45,8.04-7.02,11.26-15.86,13.36-21.63,1.35-3.7,5.01-14.87,1.27-54.08-.88-9.23-1.86-16.75-2.54-21.63"/>
  <path class="cls-1" d="m144.35,14.72c6.04-9.96,16.1-15.44,25.45-14,7.33,1.13,13.66,6.43,16.54,12.72,6.74,14.74-3.63,38.99-19.09,51.53-5.64,4.58-15.79,10.71-14.63,15.9.17.76,1,3.35,3.18,4.45,2.35,1.19,4.5-.24,5.09.64.83,1.23-1.94,6.32-6.36,7-3.09.48-6.38-1.28-8.27-4.45"/>
  <path class="cls-1" d="m146.9,36.36c.15-.44.37-1.11.64-1.91,3.8-11.3,5.7-16.95,7.63-19.09,3.87-4.26,11.26-7,16.54-4.45,4.28,2.06,5.76,6.95,6.36,8.91.81,2.63,1.43,6.68-.64,14-.68,2.4-4.1,13.84-15.27,25.45-5.31,5.52-13.31,12.04-13.36,12.09h-.64"/>
  <path class="cls-1" d="m347.23,13.3c-.1,4.4-27.44,7.91-49.62,7.63-20.73-.26-47.03-3.96-47.08-8.27-.05-4.23,25.13-8.97,47.71-8.91,23.31.06,49.09,5.25,48.99,9.54Z"/>
  <path class="cls-1" d="m250.53,12.66c-2.58,13.13-5.34,33.24-3.82,57.89,1.3,21.1,4.58,26.78,5.73,28.63,14.75,23.76,60.26,31.04,82.71,11.45,8.04-7.02,11.26-15.86,13.36-21.63,1.35-3.7,5.01-14.87,1.27-54.08-.88-9.23-1.86-16.75-2.54-21.63"/>
  <path class="cls-1" d="m348.49,24.72c2.16-1.49,5.6-3.47,10.18-4.45,2.97-.64,14.49-3.15,21.63,4.45,6.14,6.55,6.55,17.27,2.54,22.9-2.31,3.25-6.16,4.9-5.73,7.63.29,1.86,2.29,2.53,3.82,3.82,5.19,4.39,5.34,16.4.64,23.54-5.84,8.85-20.36,12-32.45,4.45"/>
  <path class="cls-1" d="m349.76,34.9c6-6.25,13.65-9.15,19.72-7,.83.29,4.36,1.54,6.36,5.09,2.09,3.7,2.02,9.04-.64,12.09-3.4,3.9-8.86,1.57-11.45,5.73-.97,1.55-1.46,3.89-.64,5.73,1.09,2.41,3.59,2.03,8.27,5.09,2.7,1.76,4.81,3.15,5.73,5.73,1.37,3.85-.9,7.64-1.27,8.27-2.41,4.02-6.6,5.24-8.27,5.73-8.01,2.33-15.14-2.24-16.54-3.18"/>
  <path class="cls-1" d="m533.44,14.41c-.1,4.4-27.44,7.91-49.62,7.63-20.73-.26-47.03-3.96-47.08-8.27-.05-4.23,25.13-8.97,47.71-8.91,23.31.06,49.09,5.25,48.99,9.54Z"/>
  <path class="cls-1" d="m436.74,13.77c-2.58,13.13-5.34,33.24-3.82,57.89,1.3,21.1,4.58,26.78,5.73,28.63,14.75,23.76,60.26,31.04,82.71,11.45,8.04-7.02,11.26-15.86,13.36-21.63,1.35-3.7,5.01-14.87,1.27-54.08-.88-9.23-1.86-16.75-2.54-21.63"/>
  <path class="cls-1" d="m533.82,15.74c1.52-1.2,7.18-5.27,15.9-4.45,2,.19,10.06.94,14,7,4.04,6.22,2.68,16.44-1.91,22.27-1.93,2.46-5.28,5.2-4.45,7.63.34,1,1.18,1.33,1.91,1.91,4.17,3.33,3.02,13.79,0,20.99-2.92,6.96-4.39,10.45-5.73,12.09-.49.6-1.69,2-1.27,3.18.46,1.3,2.63,1.64,4.45,1.91,5.21.77,7.92-.7,8.91.64.86,1.17-.4,3.41-.64,3.82-2.05,3.63-6.79,4.33-7.63,4.45-5.58.83-7.24-2.36-12.09-1.27-2.26.5-2.62,1.38-6.35,3.66-2.52,1.53-6.31,3.55-11.46,5.25"/>
  <path class="cls-1" d="m535.09,27.83c.24-.46,3.73-7.05,10.82-7.63,5.33-.44,11.53,2.62,12.72,7.63.97,4.04-1.51,8.56-4.45,10.82-3.08,2.36-5.83,1.6-7.63,4.45-.99,1.56-1.49,3.89-.64,5.73,1.11,2.37,3.56,1.9,5.73,3.82,3.79,3.36,3.56,11.28,1.27,16.54-2.32,5.34-5.57,5.23-6.36,10.18-.53,3.34.41,6.74-1.27,7.63-.67.35-1.35.1-1.91,0-1.89-.35-4.85.46-9.54,5.73"/>
</svg>