<?xml version="1.0" encoding="UTF-8"?>
<svg id="Lag_3" data-name="Lag 3" xmlns="http://www.w3.org/2000/svg" viewBox="0 0 587.64 148.72">
  <defs>
    <style>
      .cls-1 {
        fill: none;
        stroke: #80594a;
        stroke-miterlimit: 10;
      }
    </style>
  </defs>
  <path class="cls-1" d="m342.24,11.75c-.1,4.4-27.45,7.92-49.64,7.64-20.73-.26-47.05-3.96-47.1-8.27-.05-4.23,25.14-8.97,47.73-8.91,23.32.06,49.11,5.25,49.01,9.55Z"/>
  <path class="cls-1" d="m245.5,11.12c-2.58,13.13-5.34,33.25-3.82,57.92,1.3,21.11,4.58,26.79,5.73,28.64,14.76,23.77,60.29,31.05,82.74,11.46,8.04-7.02,11.26-15.87,13.37-21.64,1.35-3.7,5.01-14.88,1.27-54.1-.88-9.23-1.86-16.75-2.55-21.64"/>
  <path class="cls-1" d="m288.92,44.84c.18.39.29,1.05,0,1.27-.49.37-1.5-.95-2.55-.64-.96.29-1.24,1.75-1.27,1.91-.24,1.24.26,2.77,1.27,3.18.12.05.83.32,1.27,0,.27-.19.29-.49.64-.64.2-.09.53-.13.64,0,.3.36-.71,2.4-1.91,2.55-1.39.17-3.1-2.2-3.18-4.46-.07-1.85.93-4.19,2.55-4.46.92-.15,2.13.36,2.55,1.27Z"/>
  <path class="cls-1" d="m297.2,50.56c.15.24,1.14-.43,1.91,0,.66.37.99,1.46.64,1.91-.31.39-.98.08-2.55,0-2.18-.12-2.95.37-3.18,0-.56-.91,3.89-4.05,3.18-5.73-.02-.06-.24-.57-.64-.64-.39-.06-.56.37-1.27.64-.38.14-1.05.28-1.27,0-.15-.19-.04-.51,0-.64.35-1.02,2.23-2.63,3.82-1.91,1.37.62,1.67,2.59,1.27,3.82-.48,1.48-2.09,2.25-1.91,2.55Z"/>
  <path class="cls-1" d="m297.75,74.94c.15.24,1.14-.43,1.91,0,.66.37.99,1.46.64,1.91-.31.39-.98.08-2.55,0-2.18-.12-2.95.37-3.18,0-.56-.91,3.89-4.05,3.18-5.73-.02-.06-.24-.57-.64-.64-.39-.06-.56.37-1.27.64-.38.14-1.05.28-1.27,0-.15-.19-.04-.51,0-.64.35-1.02,2.23-2.63,3.82-1.91,1.37.62,1.67,2.59,1.27,3.82-.48,1.48-2.09,2.25-1.91,2.55Z"/>
  <path class="cls-1" d="m297.42,87.44c.15.24,1.14-.43,1.91,0,.66.37.99,1.46.64,1.91-.31.39-.98.08-2.55,0-2.18-.12-2.95.37-3.18,0-.56-.91,3.89-4.05,3.18-5.73-.02-.06-.24-.57-.64-.64-.39-.06-.56.37-1.27.64-.38.14-1.05.28-1.27,0-.15-.19-.04-.51,0-.64.35-1.02,2.23-2.63,3.82-1.91,1.37.62,1.67,2.59,1.27,3.82-.48,1.48-2.09,2.25-1.91,2.55Z"/>
  <ellipse class="cls-1" cx="296.88" cy="59.16" rx="2.86" ry="4.14"/>
  <path class="cls-1" d="m297.83,59.47c-.11.94-.77,1.98-1.27,1.91-.55-.08-1.01-1.47-.64-2.55.22-.64.81-1.37,1.27-1.27.5.11.73,1.15.64,1.91Z"/>
  <path class="cls-1" d="m290.19,63.93c-.05.35-.46.55-.64.64-.78.39-1.4.09-2.55,0-1.72-.14-2.08.38-2.55,0-.62-.51.03-1.52,0-3.82-.04-2.6-.65-4.07,0-4.46.33-.19.87-.05,1.21.22,1.53,1.23-.54,5.37.7,6.14.61.38,1.34-.47,2.55,0,.61.24,1.34.78,1.27,1.27Z"/>
  <path class="cls-1" d="m288.92,85.57c-.66,2.17.84,3.68,0,4.46-.46.43-1.39.41-1.91,0-.9-.71.11-2.08-.64-3.82-.79-1.83-2.65-2.03-2.55-3.18.06-.65.73-1.3,1.27-1.27.91.05,1.19,1.96,1.91,1.91.65-.04.84-1.61,1.91-1.91.1-.03.36-.1.64,0,0,0,.41.14.64.64.38.82-.82,1.69-1.27,3.18Z"/>
  <path class="cls-1" d="m290.19,74.11c.56,1.03,1.01,1.89.64,2.55-.34.6-1.3.93-1.91.64-.79-.38-.5-1.56-1.27-1.91-.59-.26-1.47.09-1.91.64-.56.71-.11,1.43-.64,1.91-.46.41-1.39.4-1.91,0-1.06-.82-.35-3.25,0-4.46.37-1.27,1.48-5.07,3.18-5.09.67-.01,1.73,1.9,3.82,5.73Z"/>
  <path class="cls-1" d="m287.65,72.52c.09.41.16.7,0,.95-.35.54-1.56.54-1.91,0-.16-.25-.09-.55,0-.95.06-.26.36-1.57.95-1.59.58-.02.93,1.48.95,1.59Z"/>
  <path class="cls-1" d="m145.29,16.37c-.11,4.29-28.27,7.7-51.12,7.43-21.35-.25-48.45-3.85-48.5-8.05-.05-4.12,25.89-8.73,49.16-8.67,24.02.06,50.57,5.11,50.47,9.29Z"/>
  <path class="cls-1" d="m45.66,15.75c-2.66,12.78-5.5,32.35-3.93,56.35,1.34,20.54,4.71,26.06,5.9,27.87,15.2,23.12,62.09,30.21,85.21,11.15,8.28-6.83,11.6-15.44,13.76-21.05,1.39-3.6,5.16-14.48,1.31-52.63-.91-8.98-1.92-16.3-2.62-21.05"/>
  <path class="cls-1" d="m145.44,16.36c5.74-4.92,10.35-5.63,13.11-5.57,16.76.34,33.15,30.17,24.91,46.44-1.39,2.74-4.28,6.69-8.52,9.91-5.76,4.36-10.2,4.5-17.7,9.29-4.02,2.57-6.87,5.17-8.52,6.81"/>
  <path class="cls-1" d="m147.4,33.08c.18-1.07,1.12-6.04,5.9-9.29.95-.64,4.02-2.74,7.87-2.48,8.31.56,12.59,11.65,13.11,13,.66,1.71,2.93,8.19.66,15.48-3.05,9.78-13.08,17.11-25.56,19.2"/>
  <path class="cls-1" d="m532.66,12.03c-.1,4.4-27.41,7.91-49.57,7.63-20.7-.26-46.98-3.95-47.03-8.26-.05-4.22,25.11-8.96,47.66-8.9,23.29.06,49.04,5.25,48.93,9.53Z"/>
  <path class="cls-1" d="m436.06,11.4c-2.58,13.12-5.33,33.2-3.81,57.83,1.3,21.08,4.57,26.75,5.72,28.6,14.73,23.73,60.2,31.01,82.62,11.44,8.03-7.01,11.25-15.84,13.35-21.61,1.35-3.7,5.01-14.86,1.27-54.02-.88-9.22-1.86-16.73-2.54-21.61"/>
  <path class="cls-1" d="m535.38,33.95c1.07-.62,2.37-1.16,3.18-.64.92.6.47,2.14,1.27,2.54,1.21.6,3.21-2.44,4.45-1.91,1.01.43.14,2.64,1.27,4.45,1.25,1.99,3.92,1.76,6.99,2.54,0,0,3.71.95,8.9,5.08,6.66,5.31,10.61,19.05,5.08,29.23-4.23,7.79-13.45,12.47-17.79,12.71-1.05.06-3.13-.06-5.08,1.27-1.97,1.34-2.7,3.39-3.81,3.18-.93-.18-.91-1.71-1.91-1.91-1.29-.25-2.35,2.15-3.18,1.91-.46-.14-.84-1.74-.64-5.08"/>
  <path class="cls-1" d="m536.65,52.38c1.2-1.2,4.68-4.37,9.53-4.45,7.51-.12,14.01,7.24,14.62,14.62.78,9.47-8.15,18.79-15.89,17.79-4.17-.54-7.01-3.95-8.26-5.72"/>
  <rect class="cls-1" x="1.74" y="121.9" width="584.16" height="24.28"/>
</svg>