<?xml version="1.0" encoding="UTF-8"?>
<svg id="Lag_2" data-name="Lag 2" xmlns="http://www.w3.org/2000/svg" viewBox="0 0 989.07 669.19">
  <defs>
    <style>
      .cls-1 {
        fill: #7f5849;
        font-family: BaskervilleURW-Reg, 'Baskerville URW';
        font-size: 107.45px;
      }

      .cls-2 {
        stroke-width: 1.73px;
      }

      .cls-2, .cls-3, .cls-4 {
        fill: none;
        stroke: #7f5849;
        stroke-miterlimit: 10;
      }

      .cls-3 {
        stroke-width: 1.29px;
      }

      .cls-4 {
        stroke-width: 1.26px;
      }
    </style>
  </defs>
  <g id="Lag_1-2" data-name="Lag 1">
    <g>
      <polyline class="cls-2" points="378.16 476.46 378.16 467.19 378.16 456.32 374.17 444.56 370.18 432.6 364.2 424.63 362.21 412.67 362.21 401.57 364.2 392.38 368.19 384.75 372.79 384.75 378.16 388.74 384.14 396.72 387.83 404.69 392.11 420.64 396.1 436.59 398.1 444.56 400.09 452.54 402.08 466.49 402.08 475.55 402.08 486 402.08 496.86 402.08 505.22 398.1 508.36 394.1 508.36 388.13 504.37 382.15 496.03 378.16 484.43 376.17 480.45"/>
      <polyline class="cls-2" points="830.69 410 839.68 399.71 841.67 387.75 841.67 373.79 841.67 358.11 839.68 343.89 833.7 329.93 829.71 317.97 817.75 304.01 809.77 296.04 803.79 294.05"/>
      <polyline class="cls-2" points="834.69 328.93 858.62 326.94 872.57 322.95 886.53 318.97 900.48 314.98 910.45 310.99 920.42 307 930.39 305.01 940.35 303.02 956.15 303.02 970.55 303.02 978.23 305.01 986.21 310.99 988.2 314.98 988.2 323.86 982.22 330.93 970.26 338.9 954.31 346.88 936.37 352.86 914.44 354.85 900.48 356.84 880.55 358.84 870.58 360.83 854.63 364.82 844.66 368.81"/>
      <polyline class="cls-2" points="375.17 478.45 363.21 478.45 351.93 478.45 338.09 478.45 321.34 482.44 305.39 488.42 287.45 492.41 265.52 500.38 249.57 504.37 235.62 506.36 221.41 508.36 199.4 508.36 178.42 505.84 171.82 502.38 170.82 494.4 170.82 488.42 174.81 482.44 178.8 476.46 197.74 466.49 215.68 458.52 233.62 454.53 255.55 450.54 275.49 448.55 296.89 446.56 315.36 444.56 327.32 440.58 345.26 434.59 361.21 430.61 365.2 428.61"/>
      <polyline class="cls-2" points="366.2 380.84 412.05 372.79 497.78 356.84 597.31 335.91 691.15 316.97 800.11 294.05"/>
      <polyline class="cls-2" points="822.73 414.2 753.58 428.61 665.79 446.56 562.2 468.49 459.9 492.41 398.91 508.36"/>
    </g>
    <polygon class="cls-2" points="404.02 229.2 450.34 235.74 488.26 247.55 521.37 269.07 557.8 275.69 577.36 275.69 617.06 275.69 643.52 252.45 655.43 229.2 655.43 201.75 671.31 194.66 685.87 180.05 707.04 165.44 721.59 157.2 711.76 136.62 703.07 120.14 695.13 95.9 683.22 67.27 660.72 64.33 637.26 37.29 612.43 14.11 557.51 1.06 532.37 1.06 506.47 .87 470.05 12.46 420.38 25.7 388.93 43.91 373.59 70.61 373.59 95.9 363 128.58 363 165.44 388.14 201.75 404.02 229.2"/>
    <g>
      <polygon class="cls-4" points="433.45 322.16 458.46 325.93 470.55 329.4 467.28 340.8 454.5 337.13 431.88 327.64 433.45 322.16"/>
      <polygon class="cls-3" points="54.72 210.2 53.3 215.15 28.63 212.02 21.6 210.01 13.62 207.72 12.58 202.77 13.81 198.47 19.13 196.51 30.11 199.66 35.19 201.12 51.8 208.21 54.72 210.2"/>
      <polygon class="cls-2" points="423.52 330.02 440.46 338.97 453.88 342.81 472.23 348.08 480.64 350.49 487.86 326.03 474.67 322.25 458.66 317.66 428.02 314.34 415.12 310.64 382.25 301.21 377.75 316.89 411.42 325.96 423.52 330.02"/>
      <polygon class="cls-2" points="58.62 223.24 39.05 220.74 22.78 217.64 8.56 213.56 3.09 209.65 .91 203.22 3.23 195.11 8.81 189.69 13.54 190.02 30.04 194.76 41.4 198.01 47.73 201.39 56.26 205.39 62.87 208.41 82.94 214.61 104.57 220.81 100.43 235.22 58.62 223.24"/>
      <polyline class="cls-2" points="103.96 236.23 137.19 250.45 175.96 263.13 220.88 276.01 254.84 285.75 312.3 302.22 358.16 313.81 380.19 317.59"/>
      <polyline class="cls-2" points="386.13 302.32 364.64 293.82 325.88 279.59 304.77 273.53 274.15 264.75 227.71 251.44 188.65 240.24 143.25 227.22 107.06 219.96"/>
      <line class="cls-3" x1="64.27" y1="219.96" x2="66.24" y2="215.15"/>
      <line class="cls-3" x1="421.33" y1="322.16" x2="422.9" y2="317.59"/>
    </g>
    <text class="cls-1" transform="translate(102.02 638.46)"><tspan x="0" y="0">2005</tspan></text>
  </g>
</svg>