<?xml version="1.0" encoding="UTF-8"?>
<svg id="Lag_2" data-name="Lag 2" xmlns="http://www.w3.org/2000/svg" viewBox="0 0 176.71 223.77">
  <defs>
    <style>
      .cls-1 {
        fill: #202944;
      }
    </style>
  </defs>
  <g id="Lag_1-2" data-name="Lag 1">
    <path class="cls-1" d="m29.39,137.02C32.25,89.35-4.12,75.42.39,35.02,4.06,2.12,31.41-2.58,44.39,1.02c9.97,2.77,13,3,15,62,1.82,53.82,28.35,58.37,35,64,16.22,13.75,26.86,7.59,47,24,20,16.3,51,24,26,43-11.31,8.6-19.7-.92-40,5-19.65,5.73-20.75,17.91-38,23-24.51,7.23-58.8-8.85-68-32-7.02-17.65,6.32-24.93,8-53Z"/>
  </g>
</svg>