<?xml version="1.0" encoding="UTF-8"?>
<svg id="Lag_2" data-name="Lag 2" xmlns="http://www.w3.org/2000/svg" viewBox="0 0 919.19 537.64">
  <defs>
    <style>
      .cls-1 {
        fill: #7f5849;
        font-family: BaskervilleURW-Reg, 'Baskerville URW';
        font-size: 108.15px;
      }

      .cls-2 {
        fill: none;
        stroke: #7f5849;
        stroke-miterlimit: 10;
        stroke-width: 1.37px;
      }
    </style>
  </defs>
  <g id="Lag_1-2" data-name="Lag 1">
    <g>
      <polygon class="cls-2" points="174.77 368.25 184 356.39 184 337.93 191.91 320.8 191.91 283.89 183.34 262.81 174.77 240.4 183.34 207.45 191.91 182.4 202.45 149.45 211.68 127.05 220.9 111.23 220.9 87.5 232.76 69.05 244.63 61.14 244.63 75.64 255.17 84.87 272.31 100.69 281.53 124.41 290.76 137.59 303.94 137.59 314.48 146.82 328.98 146.82 338.21 163.95 344.8 170.54 354.03 170.54 363.25 178.45 379.07 182.4 388.3 187.68 388.3 195.59 401.48 195.59 417.29 186.36 430.47 199.54 439.7 214.7 450.24 231.17 471.33 245.67 484.51 250.94 508.24 265.44 534.6 283.89 554.37 291.8 568.87 283.89 579.41 297.08 587.32 315.53 587.32 330.03 579.41 343.21 587.32 368.25 595.23 390.66 580.73 403.84 570.19 426.24 562.28 440.74 555.69 453.92 562.28 469.74 563.6 486.88 570.19 493.47 554.37 513.24 530.65 536.96 517.46 536.96 502.97 536.96 499.01 526.42 479.24 529.05 468.7 521.14 451.56 521.14 427.84 514.55 393.57 500.06 385 492.15 360.62 478.97 332.94 468.42 318.44 459.2 301.3 459.2 282.85 444.7 261.76 442.06 247.26 442.06 227.49 430.2 216.95 420.97 209.04 407.79 195.86 409.11 184 398.57 182.68 389.34 182.68 377.48 174.77 368.25"/>
      <polyline class="cls-2" points="191.91 291.8 209.04 283.89 223.54 283.89 231.45 275.99 244.63 283.89 261.76 275.99 273.62 275.99 273.62 283.89 263.08 291.8 273.62 299.05 273.62 312.89 289.44 312.89 301.3 299.05 318.44 299.05 328.98 312.89 346.12 299.05 346.12 283.89 365.89 253.58 372.48 240.4 372.48 229.85 372.48 217.99 390.93 204.81 388.3 195.59"/>
      <polyline class="cls-2" points="354.03 291.8 363.25 299.05 385 304.98 409.38 312.89 426.52 324.75 433.11 331.34 426.52 359.02 418.61 374.84 400.16 374.84 390.93 361.66 385 351.12 379.07 345.84 373.8 355.07 367.21 348.48 354.03 366.93 361.93 374.84 367.21 385.38 360.62 397.25 354.03 407.79 343.48 414.38 332.94 427.56 325.03 438.11 325.03 452.61"/>
      <polyline class="cls-2" points="433.11 361.66 450.24 372.2 466.06 372.2 487.15 366.93 504.28 361.66 510.87 361.66 510.87 378.79 521.42 385.38 528.01 397.25 543.83 397.25 558.32 405.16 574.14 405.16"/>
    </g>
    <g>
      <ellipse class="cls-2" cx="143.97" cy="147.54" rx="48.23" ry="36.94"/>
      <path class="cls-2" d="m100.13,109.21c4.83,1.69,10.96-1,13.75-3.93,15.8-16.62-36.35-89.96-37.32-88.38-1.46,2.39.5,6.61,13.75,74.63.94,4.8,2.96,15.27,9.82,17.68Z"/>
      <path class="cls-2" d="m149.25,91.5c4.12,4.15,10.78,4.56,13.75,3.93,20.04-4.28,13.83-88.82,15.71-94.27,2.25-6.52-32.58,56.24-33.39,76.6-.12,3.06-.29,9.5,3.93,13.75Z"/>
      <path class="cls-2" d="m191.91,116.11c1.02,5.68,5.59,10.19,8.16,11.24,15.15,6.14,63.93-73.89,59.46-74.1-11.87-.55-59.7,38.98-66.09,53.16-2.34,5.2-1.54,9.7-1.54,9.7Z"/>
      <path class="cls-2" d="m205.08,145.66c-3.46,4.42-.96,13.42,2.68,17.58,14.55,16.64,76.65-14.92,76.39-18.44-.44-6.04-28.2.13-67.69-2.2-2.58-.15-8.57-.54-11.38,3.05Z"/>
      <path class="cls-2" d="m134.62,199.05c5.45-2.11,11.71.22,14.16,2,16.57,12.07-23.96,92.07-23.99,92.51-.83,11.84-6.89-64.63.65-83.55,1.14-2.85,3.6-8.8,9.18-10.96Z"/>
      <path class="cls-2" d="m181.26,191.78c1.89-5.45,7.11-9.19,9.82-9.82,15.93-3.69,46.04,81.61,47.14,82.49,1.84,1.47-52.87-47.84-56.96-62.85-1.5-5.5,0-9.82,0-9.82Z"/>
      <path class="cls-2" d="m95.15,180.42c-.62-5.74-4.87-10.56-7.36-11.78-14.69-7.18-71.98,68.18-64.48,69.77,1.18.25,62.27-34.72,69.63-48.43,2.7-5.02,2.21-9.57,2.21-9.57Z"/>
      <path class="cls-2" d="m79.81,144.02c3.69-4.23,1.66-13.35-1.75-17.7-13.66-17.38-67.92,13.71-77.25,14.42-2.27.17,28.16,1.35,67.48,5.73,2.57.29,8.53.99,11.53-2.45Z"/>
    </g>
    <text class="cls-1" transform="translate(449.93 500.04)"><tspan x="0" y="0">2019-2022</tspan></text>
  </g>
</svg>