<?xml version="1.0" encoding="UTF-8"?>
<svg id="Lag_2" data-name="Lag 2" xmlns="http://www.w3.org/2000/svg" viewBox="0 0 1901.05 2120.39">
  <defs>
    <style>
      .cls-1, .cls-2, .cls-3 {
        stroke: #ef7b32;
      }

      .cls-1, .cls-2, .cls-3, .cls-4, .cls-5, .cls-6 {
        fill: none;
        stroke-miterlimit: 10;
      }

      .cls-1, .cls-4 {
        stroke-width: 3px;
      }

      .cls-2, .cls-5 {
        stroke-width: 3.07px;
      }

      .cls-3, .cls-6 {
        stroke-width: 3.07px;
      }

      .cls-4, .cls-5, .cls-6 {
        opacity: .4;
        stroke: #f8c576;
      }
    </style>
  </defs>
  <g id="Lag_1-2" data-name="Lag 1">
    <g>
      <path class="cls-3" d="m1807.03,2120.04c6.11-26.07,47.09-208.55,0-377.41-44.58-159.88-139.11-203.51-160.53-213.4-51.81-23.91-65.02,3.22-110.43-29.64-9.5-6.88-97.07-72.65-112.48-201.55-17.85-149.34,67.69-329.03,154.4-401.12,105.74-87.91,170.61,19.62,222.91-79.04,54.14-102.14,49.58-339.92-3.07-462.37-30.09-69.97-61.31-68.39-116.57-175.86-32.47-63.15-53.27-125.11-65.44-165.98"/>
      <path class="cls-1" d="m226.5,2109.55c78.03,5.3,141.16-57.87,157-150.73,1.74-10.21,11.38-70.46-4-123.68-16.43-56.85-46.21-53.02-101-102.42-37.01-33.37-80.06-72.19-105-148.8-18.94-58.18-36.07-164.65-15-249.28,41.95-168.49,197.22-97.4,231-260.88,16.6-80.34-5.99-169.65-10-185.51-4.37-17.29-20.67-76.65-95-154.6-77.14-80.89-92.71-51.69-148-117.88-24.45-29.27-76.13-91.13-104-208.7C14.34,330.44,10.58,248.29,4.5,115.27,2.72,76.27,1.91,44.03,1.5,22.51"/>
      <path class="cls-4" d="m249.54,2109.96c78.03,5.3,141.16-57.87,157-150.73,1.74-10.21,11.38-70.46-4-123.68-16.43-56.85-46.21-53.02-101-102.42-37.01-33.37-80.06-72.19-105-148.8-18.94-58.18-36.07-164.65-15-249.28,41.95-168.49,197.22-97.4,231-260.88,16.6-80.34-5.99-169.65-10-185.51-4.37-17.29-20.67-76.65-95-154.6-77.14-80.89-92.71-51.69-148-117.88-24.45-29.27-76.13-91.13-104-208.7-18.16-76.62-21.92-158.78-28-291.8-1.78-39-2.59-71.24-3-92.76"/>
      <path class="cls-6" d="m1867.09,2119.93c6.11-26.07,47.09-208.55,0-377.41-44.58-159.88-139.11-203.51-160.53-213.4-51.81-23.91-65.02,3.22-110.43-29.64-9.5-6.88-97.07-72.65-112.48-201.55-17.85-149.34,67.69-329.03,154.4-401.12,105.74-87.91,170.61,19.62,222.91-79.04,54.14-102.14,49.58-339.92-3.07-462.37-30.09-69.97-61.31-68.39-116.57-175.86-32.47-63.15-53.27-125.11-65.44-165.98"/>
      <path class="cls-5" d="m701.73,2106.41c12.11-6.14,207.03-111.87,264.83-480.15,29.27-186.45,23.84-443.1-54.19-608.59-71.69-152.05-195.69-208.09-273.01-243.04-44.27-20.01-89.97-32.35-113.5-104.73-22.18-68.21-16.4-164.37,3.07-231.19,27.94-95.87,81.43-122.29,103.27-132.39,77.93-36.03,137.57,27.35,211.66,79.04,98.69,68.85,288.18,201.06,409.01,53.35,49.66-60.71,104.73-189.5,122.7-345.79,4.32-37.57,5.71-69.85,6.14-92.87"/>
      <path class="cls-2" d="m648.36,2106.39c12.11-6.14,207.03-111.87,264.83-480.15,29.27-186.45,23.84-443.1-54.19-608.59-71.69-152.05-195.69-208.09-273.01-243.04-44.27-20.01-89.97-32.35-113.5-104.73-22.18-68.21-16.4-164.37,3.07-231.19,27.94-95.87,81.43-122.29,103.27-132.39,77.93-36.03,137.57,27.35,211.66,79.04,98.69,68.85,288.18,201.06,409.01,53.35,49.66-60.71,104.73-189.5,122.7-345.79,4.32-37.57,5.71-69.85,6.14-92.87"/>
    </g>
  </g>
</svg>