<?xml version="1.0" encoding="UTF-8"?>
<svg id="Lag_2" data-name="Lag 2" xmlns="http://www.w3.org/2000/svg" viewBox="0 0 109.17 108.17">
  <defs>
    <style>
      .cls-1 {
        fill: #7f5849;
      }

      .cls-2 {
        fill: none;
        stroke: #7f5849;
        stroke-miterlimit: 10;
      }
    </style>
  </defs>
  <g id="Lag_1-2" data-name="Lag 1">
    <path class="cls-1" d="M41.4,1c1.58,0,3.8,.12,6.88,.3,5.29,.3,8.2,.46,9.39,1,3.46,1.56,3.66,6.26,3.91,12.21,.27,6.39,.6,14.33,5.44,21.02,3.92,5.42,8.76,7.35,13.03,9.06,4.09,1.64,7.32,2.93,8.48,6.87,2.18,7.42-5.08,16.37-10.48,20.58-5.25,4.09-11.62,6.07-19.48,6.07-3.89,0-7.47-.5-10.08-.86-7.3-1.02-15.33-3.48-21.49-6.6-5.31-2.69-11.75-7.13-12.3-13.08-.31-3.3,1.42-5.02,4.27-7.86,2.73-2.72,6.47-6.44,9.71-13.28,3.97-8.36,4.88-16.35,5.62-22.77,.74-6.52,1.28-11.23,4.65-12.44,.45-.16,1.25-.24,2.47-.24m0-1c-1.32,0-2.22,.09-2.81,.3-7.59,2.74-2.69,18.6-10.83,35.73-6.51,13.72-14.75,14.3-14.07,21.65,1.05,11.39,21.65,18.76,34.65,20.57,2.7,.38,6.26,.87,10.22,.87,6.32,0,13.65-1.26,20.1-6.28,5.72-4.46,13.15-13.74,10.83-21.65-2.57-8.74-14.09-5.78-21.65-16.24-9.16-12.67-1.55-29.87-9.74-33.56-1.36-.61-4.15-.77-9.74-1.08-3.08-.17-5.32-.3-6.93-.3h0Z"/>
    <path class="cls-2" d="M55.44,47.96c-.47,2.23,.17,4.44,1.72,5.74,1.06,.89,2.26,1.09,2.87,1.15"/>
    <path class="cls-2" d="M14.52,58.5C2.99,65.31,.73,71.36,.52,75.2c-.87,15.65,30.12,34.48,58.33,32.29,25.6-1.99,52.09-21.54,49.67-35.99-.54-3.23-3.17-10.02-19-16"/>
    <path class="cls-2" d="M16.52,63.5c-4.1,2.57-7.34,5.76-7.67,9.62-.95,11.15,22.57,25.61,44.79,26.04,22.99,.44,47.68-14.07,46.88-25.66-.41-5.93-7.45-10.32-13-13"/>
    <path class="cls-2" d="M21.52,67.5c-1.66,1.42-3.3,3.34-3.29,5.62,.03,7.64,18.61,16.01,35.42,15.62,17.52-.4,36-10.39,35.42-17.71-.2-2.49-2.58-4.35-4.54-5.53"/>
  </g>
</svg>