<?xml version="1.0" encoding="UTF-8"?>
<svg id="Lag_2" data-name="Lag 2" xmlns="http://www.w3.org/2000/svg" viewBox="0 0 116.27 105.54">
  <defs>
    <style>
      .cls-1 {
        fill: #8fa48f;
      }
    </style>
  </defs>
  <g id="Lag_1-2" data-name="Lag 1">
    <path class="cls-1" d="m65.29.03c-12.17,1.08-6.42,3.75-23.21.38-12.72-2.56-24.88,10.07-28.26,13.58C7.39,20.67-3.89,36.45,1.35,46.64c7.06,13.74,37.85,5.05,44.4,19.82,2.94,6.63-2.46,10.17.73,18.72,5.11,13.69,23.93,17.91,27.52,18.72,2.67.6,31.64,6.73,40-9.17,4.19-7.97,2.41-19.97-4.04-26.05-7.21-6.8-14.38-5.11-16.67-10.63-2.18-5.25,3.77-14.3,4-25,.15-7.1-8.96-22.8-14-24C78.11,7.79,71.48-.52,65.29.03Z"/>
  </g>
</svg>