<?xml version="1.0" encoding="UTF-8"?>
<svg id="Lag_2" data-name="Lag 2" xmlns="http://www.w3.org/2000/svg" viewBox="0 0 551.13 490.36">
  <defs>
    <style>
      .cls-1 {
        fill: #f8c576;
      }

      .cls-2, .cls-3 {
        fill: #ef7b32;
      }

      .cls-4 {
        fill: none;
        stroke: #ef7b32;
        stroke-miterlimit: 10;
        stroke-width: 2.88px;
      }

      .cls-5 {
        opacity: .4;
      }

      .cls-3 {
        font-family: BaskervilleURW-Reg, 'Baskerville URW';
        font-size: 51.8px;
      }
    </style>
  </defs>
  <g id="Lag_1-2" data-name="Lag 1">
    <g>
      <g class="cls-5">
        <path class="cls-1" d="m286.43,196.16c26.58-.37,94.36-1.31,120.05-1.67,13.31-.14,26.74-.71,40.15,1.1,13.43,1.71,27.16,6.41,36.7,16.56,2.56,2.9,4.86,6.38,3.93,10.64-1.07,4.31-5.75,5.48-9.5,6.18-11.16,2.5-27.78,5.86-39.17,8.28-12.85,2.69-26.18,6.29-39.03,9.06-13.12,2.6-26.55,4.4-39.9,5.05-19.37.79-40.71,1.62-59.99,2.17-11.78.13-28.5,1.36-40.22.41-6.77-.57-13.66-1.98-19.89-5.12-1.3-.8-2.7-1.14-3.74-2.51-1.98-2.83,1.07-5.99,3.53-7.02,0,0,4.49-2.38,4.49-2.38,25.87-12.71,55.35-14.43,83.66-14.71,20.85-.04,54.5-.14,75.04-.15,0,0,2.5,0,2.5,0h1.25c.42,0,.83.09,1.26.48-.66.7-1.69.48-2.5.53-1.51.03-5.91.1-7.5.13-18.04.29-51.65.93-70.01,1.26-26.37.68-53.46,2.31-77.78,13.28-2.85,1.24-6.08,2.98-8.77,4.47-.77.41-1.33.72-1.8,1.15-.48.4-.77.9-.76.99,0,.04-.11.1.49.47.62.35,1.4.72,2.09,1.08,11.91,5.65,25.54,4.8,38.49,4.16,0,0,19.98-1.02,19.98-1.02,19.22-.97,40.62-1.89,59.97-2.63,6.66-.23,13.3-.19,19.94-.35,13.3-.28,26.48-2.44,39.43-5.41,18.74-4.34,39.42-10.53,58.05-15.32,4.16-1.01,8.58-1.83,6.37-7.18-.54-1.32-1.39-2.6-2.38-3.73-4.32-4.72-9.8-8.37-15.74-10.96-18.44-7.78-38.9-6.59-58.64-6.79-25.22-.33-94.55.4-120.06-.48h0Z"/>
      </g>
      <g class="cls-5">
        <path class="cls-1" d="m236.94,288.54c.29-.39,1.03-.18,1.42-.2.81.04,3.34.18,4.2.22,27.9,1.46,56.1,2.73,83.99,1.3,22.31-1.19,44.42-4.12,66-9.78,25.54-6.54,51.11-15.06,77.78-15.27,7.11.18,16.42,5.13,16.44,13.31-.13,5.42-4.55,9.31-8.34,12.44-23.05,19.05-47.15,40.12-77.28,46.64-3.26.71-8.14,1.41-11.52,1.73-11.42.95-23.01-.69-34.16-2.12-29.49-4.61-59.71-2.03-88.35,6.16-3.57,1.01-7.1,2.34-9.98,4.51-4,2.96-6.67,8.24-4.59,12.74,2.22,4.27,6.91,5.43,11.64,6.6,56.59,9.91,115.34,9.82,171.58-2.44,0,0,2.74-.6,2.74-.6l1.37-.3c.46-.08.88-.32,1.47.09l.15.59c-.32.63-.81.6-1.26.74l-1.36.36-2.72.72c-49.08,12.83-100.62,17.35-151.07,11.26-3.74-.48-7.49-.9-11.22-1.51-3.23-.56-8.11-1.07-11.37-1.99-8.6-2.02-17.62-8.83-14.32-18.74,2.89-8.19,11.22-11.07,18.66-13.02,21.74-5.93,43.93-10.64,66.54-11.47,22.17-1.08,44.47,4.75,66.34-.07,28.82-6.2,53.73-24.27,76.57-42.5,2.67-2.17,5.51-4.54,6.75-7.68,1.21-2.89-.12-6.17-3.22-7.1-3.03-1.02-6.46-.79-9.66-.84-.79,0-1.72.03-2.63.05l-2.73.07c-31.77,1.41-61.67,13.2-93.12,17.7-42.86,6.35-86.29,2.89-129.2-.84,0,0-2.8-.25-2.8-.25l-1.4-.12-.7-.06c-.23-.02-.47-.02-.68-.33h0Z"/>
      </g>
      <path class="cls-2" d="m272.18,185.23c26.59-.29,94.36-1.02,120.05-1.3,13.31-.11,26.74-.59,40.05,1.27,13.26,1.76,26.8,6.43,36.14,16.48,1.16,1.3,2.17,2.74,2.87,4.37,1.13,2.36,1.26,5.81-.88,7.76-1.98,1.83-4.84,2-7.24,2.71,0,0-19.41,4.88-19.41,4.88-13.96,3.35-44.74,11.84-58.35,14.47-13.16,2.69-26.65,3.61-40.02,4.1-25.94.99-54.06,1.58-80.01,2.15-13.26.25-27.36.74-39.59-5.34-1.52-.86-3.87-1.56-3.74-3.7.31-1.99,2.11-3,3.64-3.82,0,0,4.43-2.37,4.43-2.37,7.51-3.7,15.41-6.56,23.5-8.73,22.63-6,46.37-6.67,69.66-6.93,19.14-.11,40.95-.2,60.03-.1,1.5,0,6.01,0,7.5.02,0,0,1.25,0,1.25,0,.42.02.83-.09,1.25.26v.11c-.41.36-.83.25-1.25.28-.74.02-2.97.06-3.75.08-24.95.56-50.08,1.01-75.02,1.25-26.44.47-53.75,1.53-78.24,12.49-2.89,1.23-6.17,2.98-8.89,4.47-1.34.66-2.82,1.65-3.09,3.07-.17,1.26,1.86,1.84,3.21,2.62,5.93,2.88,12.54,4.1,19.12,4.5,6.6.42,13.24,0,19.89-.38,19.42-1.12,40.63-2.38,59.94-3.35,19.28-1.12,40.62-1.02,59.62-3.91,13.13-2.01,26.12-5.21,39.1-8.09,9.69-2.2,29.33-6.67,39.01-8.92,8.69-1.37,9.98-6.29,4.31-12.9-9.04-9.79-22.22-14.39-35.19-16.17-6.56-.95-13.21-1.32-19.86-1.45-36.24-.13-103.17.14-140.05.13h0Z"/>
      <path class="cls-2" d="m227.15,276.24c.39-1.04.72-.67,1.45-.68.84.05,3.32.18,4.2.23,42.68,2.23,86.02,4.62,128.27-3.05,14.44-2.56,29.17-6.93,43.21-11.21,16.34-4.91,33.11-9.43,50.34-10.15,0,0,2.91-.09,2.91-.09.97-.03,1.91-.07,3.04-.02,6.82.23,15.23,3.35,17.21,10.69,1.82,7.27-4.3,12.29-9.24,16.18-23.29,18.77-47.57,38.42-77.46,45.44-22.25,5.55-45.11-.57-67.51-.04-22.13.32-44.04,4.33-65.35,10.31-5.02,1.48-9.48,2.67-12.85,6.36-2.93,3.21-3.69,7.91-.29,11.28,3.73,3.58,9.23,4.8,14.29,5.65,55.1,9.67,112.13,7.42,166.58-5.21,0,0,2.73-.64,2.73-.64l1.36-.32c.46-.09.87-.37,1.54.39l.1.38c-.23.98-.74.91-1.19,1.04l-1.36.34-2.73.67c-49.16,12.3-100.58,14.94-150.88,9.31-5.44-.56-11.33-1.44-16.76-2.23-5.94-.9-11.72-1.81-16.9-5.79-5.95-4.63-6.18-13.16-1.8-18.99,3.65-5.32,10.46-8.09,16.1-9.61,29.17-8.13,59.99-11.98,90.1-7.72,7.45.88,14.81,1.84,22.14,2.17,38.05,2.38,70.24-22.16,98.19-45.2,2.61-2.12,5.4-4.8,6.07-8.02.49-2.74-1.01-4.62-3.54-5.41-5.8-1.8-13.23-.89-19.44-.52-29.37,2.47-58.44,11.37-87.8,15.89-29.82,4.38-60.02,4.38-90.01,2.73-13.73-.77-28.28-2.02-42-3.19,0,0-1.4-.12-1.4-.12l-.7-.06c-.24,0-.46-.07-.65-.82h0Z"/>
      <text class="cls-3" transform="translate(218.47 449.98) rotate(-137.02)"><tspan x="0" y="0">K</tspan></text>
      <text class="cls-3" transform="translate(189.81 422.12) rotate(-128.44)"><tspan x="0" y="0">I</tspan></text>
      <text class="cls-3" transform="translate(178.31 408.35) rotate(-121.56)"><tspan x="0" y="0">L</tspan></text>
      <text class="cls-3" transform="translate(161.97 382.67) rotate(-111.69)"><tspan x="0" y="0">D</tspan></text>
      <text class="cls-3" transform="translate(148.48 348.9) rotate(-102.04)"><tspan x="0" y="0">A</tspan></text>
      <text class="cls-3" transform="translate(141.19 316.92) rotate(-91.63)"><tspan x="0" y="0">H</tspan></text>
      <text class="cls-3" transform="translate(140.36 276.8) rotate(-81.59)"><tspan x="0" y="0">L</tspan></text>
      <text class="cls-3" transform="translate(144.98 246.05) rotate(-73.25)"><tspan x="0" y="0">S</tspan></text>
      <text class="cls-3" transform="translate(153.2 219.91) rotate(-67.6)"><tspan x="0" y="0"> </tspan></text>
      <text class="cls-3" transform="translate(156.94 208.55) rotate(-60.5)"><tspan x="0" y="0">K</tspan></text>
      <text class="cls-3" transform="translate(176.87 174.13) rotate(-49.94)"><tspan x="0" y="0">E</tspan></text>
      <text class="cls-3" transform="translate(196.7 150.16) rotate(-40.53)"><tspan x="0" y="0">R</tspan></text>
      <text class="cls-3" transform="translate(225.96 125.5) rotate(-29.98)"><tspan x="0" y="0">A</tspan></text>
      <text class="cls-3" transform="translate(253.89 108.36) rotate(-18.49)"><tspan x="0" y="0">M</tspan></text>
      <text class="cls-3" transform="translate(299.32 94.34) rotate(-9.12)"><tspan x="0" y="0">I</tspan></text>
      <text class="cls-3" transform="translate(316.76 90.77) rotate(-1.22)"><tspan x="0" y="0">K</tspan></text>
      <path class="cls-4" d="m295.9,463.43c19.45,5.02,69.49,15.1,126.5-5.96,17.33-6.4,70.34-26.88,102.43-82.16,23.64-40.74,24.63-80.91,24.85-98.37.3-23.92-3.41-43.67-6.89-57.21"/>
      <path class="cls-2" d="m272.18,185.23c26.57-.41,94.37-1.47,120.04-1.83,13.31-.16,26.75-.7,40.15,1.11,13.41,1.72,27.12,6.51,36.57,16.67,1.21,1.36,2.24,2.85,2.99,4.57,1.21,2.49,1.27,6.4-1.09,8.47-2.14,1.89-5.02,1.87-7.57,2.69,0,0-19.37,5.05-19.37,5.05-23.19,5.77-54.77,16.33-78.31,18.68-26.82,2.35-53.33,2.09-80.15,2.39-11.78-.13-28.54.64-40.22-.51-6.74-.68-13.54-2.18-19.66-5.3-1.21-.75-2.56-1.11-3.5-2.35-1.67-2.65,1.32-5.1,3.4-6.02,8.82-4.85,18.35-8.49,28.03-11.14,22.65-6.1,46.44-7.16,69.76-7.35,21.54-.2,43.5.09,65.04.41,0,0,2.5.03,2.5.03l1.25.02c.42.05.83-.18,1.26.52v.22c-.41.7-.83.48-1.24.54-.74.03-2.97.09-3.75.12-24.48.87-50.44,1.56-75.01,1.75-24.77.39-50.19.91-73.52,10.07-4.53,1.69-9.18,4.07-13.41,6.42-1.25.6-2.58,1.56-2.83,2.73-.01.36.17.65.82,1.02,6.43,3.57,13.78,5.01,21.09,5.33,6.55.35,13.15-.21,19.8-.69,19.4-1.47,40.61-3.11,59.91-4.23,18.39-1.23,41.23-1.23,59.43-3.5,13.13-1.68,26.18-4.69,39.16-7.42,9.72-2.05,29.41-6.32,39.11-8.5,8.09-1.23,9.2-5.99,3.88-12-8.92-9.67-21.93-14.16-34.75-15.97-13.12-1.96-26.48-1.56-39.75-1.65-25.39-.05-93.8-.27-120.06-.36h0Z"/>
      <text class="cls-3" transform="translate(218.47 449.98) rotate(-137.02)"><tspan x="0" y="0">K</tspan></text>
      <text class="cls-3" transform="translate(189.81 422.12) rotate(-128.44)"><tspan x="0" y="0">I</tspan></text>
      <text class="cls-3" transform="translate(178.31 408.35) rotate(-121.56)"><tspan x="0" y="0">L</tspan></text>
      <text class="cls-3" transform="translate(161.97 382.67) rotate(-111.69)"><tspan x="0" y="0">D</tspan></text>
      <text class="cls-3" transform="translate(148.48 348.9) rotate(-102.04)"><tspan x="0" y="0">A</tspan></text>
      <text class="cls-3" transform="translate(141.19 316.92) rotate(-91.63)"><tspan x="0" y="0">H</tspan></text>
      <text class="cls-3" transform="translate(140.36 276.8) rotate(-81.59)"><tspan x="0" y="0">L</tspan></text>
      <text class="cls-3" transform="translate(144.98 246.05) rotate(-73.26)"><tspan x="0" y="0">S</tspan></text>
      <text class="cls-3" transform="translate(153.19 219.91) rotate(-67.6)"><tspan x="0" y="0"> </tspan></text>
      <text class="cls-3" transform="translate(156.94 208.55) rotate(-60.5)"><tspan x="0" y="0">K</tspan></text>
      <text class="cls-3" transform="translate(176.87 174.13) rotate(-49.94)"><tspan x="0" y="0">E</tspan></text>
      <text class="cls-3" transform="translate(196.7 150.15) rotate(-40.54)"><tspan x="0" y="0">R</tspan></text>
      <text class="cls-3" transform="translate(225.96 125.5) rotate(-29.98)"><tspan x="0" y="0">A</tspan></text>
      <text class="cls-3" transform="translate(253.89 108.35) rotate(-18.49)"><tspan x="0" y="0">M</tspan></text>
      <text class="cls-3" transform="translate(299.32 94.33) rotate(-9.12)"><tspan x="0" y="0">I</tspan></text>
      <text class="cls-3" transform="translate(316.76 90.77) rotate(-1.22)"><tspan x="0" y="0">K</tspan></text>
    </g>
  </g>
</svg>