<?xml version="1.0" encoding="UTF-8"?>
<svg id="Lag_2" data-name="Lag 2" xmlns="http://www.w3.org/2000/svg" viewBox="0 0 112 101.43">
  <defs>
    <style>
      .cls-1 {
        fill: none;
        stroke: #7f5849;
        stroke-miterlimit: 10;
      }
    </style>
  </defs>
  <g id="Lag_1-2" data-name="Lag 1">
    <path class="cls-1" d="M84.36,8.61c-.09,3.74-22.79,6.73-41.22,6.49-17.22-.22-39.07-3.36-39.11-7.03C3.99,4.48,24.91,.45,43.67,.5c19.36,.05,40.78,4.46,40.69,8.11Z"/>
    <path class="cls-1" d="M4.03,8.07C1.89,19.23-.4,36.32,.86,57.28c1.08,17.93,3.8,22.76,4.76,24.33,12.25,20.19,50.06,26.38,68.7,9.73,6.68-5.96,9.35-13.48,11.1-18.39,1.12-3.15,4.16-12.64,1.06-45.96-.73-7.84-1.54-14.23-2.11-18.39"/>
    <path class="cls-1" d="M84.15,10.28c1.26-1.02,6.49-5.02,13.74-4.33,1.66,.16,8.36,.8,11.63,5.95,3.36,5.29,2.22,13.98-1.59,18.93-1.61,2.09-4.39,4.42-3.7,6.49,.28,.85,.98,1.13,1.59,1.62,3.46,2.83,2.51,11.72,0,17.84-2.43,5.92-3.64,8.88-4.76,10.27-.4,.51-1.4,1.7-1.06,2.7,.38,1.1,2.18,1.39,3.7,1.62,4.33,.65,6.58-.59,7.4,.54,.72,.99-.34,2.9-.53,3.24-1.7,3.08-5.64,3.68-6.34,3.79-4.63,.7-6.01-2-10.04-1.08-1.88,.43-2.17,1.18-5.28,3.11-2.09,1.3-5.24,3.01-9.52,4.46"/>
    <path class="cls-1" d="M85.73,20.01c.2-.39,3.1-5.99,8.98-6.49,4.43-.37,9.57,2.23,10.57,6.49,.8,3.44-1.25,7.27-3.7,9.19-2.56,2-4.85,1.36-6.34,3.79-.82,1.32-1.24,3.31-.53,4.87,.92,2.02,2.96,1.62,4.76,3.24,3.14,2.85,2.95,9.58,1.06,14.06-1.93,4.54-4.63,4.45-5.28,8.65-.44,2.84,.34,5.73-1.06,6.49-.55,.3-1.12,.09-1.59,0-1.57-.3-4.03,.39-7.93,4.87"/>
  </g>
</svg>