<?xml version="1.0" encoding="UTF-8"?>
<svg id="Lag_2" data-name="Lag 2" xmlns="http://www.w3.org/2000/svg" viewBox="0 0 587.64 148.72">
  <defs>
    <style>
      .cls-1 {
        fill: none;
        stroke: #80594a;
        stroke-miterlimit: 10;
      }
    </style>
  </defs>
  <rect class="cls-1" x=".75" y="123.61" width="586.14" height="24.2"/>
  <path class="cls-1" d="m536.44,17.3c-.11,4.27-28.17,7.68-50.95,7.4-21.28-.25-48.28-3.84-48.33-8.02-.05-4.1,25.8-8.7,48.99-8.64,23.93.06,50.4,5.09,50.29,9.26Z"/>
  <path class="cls-1" d="m437.16,16.69c-2.65,12.73-5.48,32.24-3.92,56.15,1.33,20.46,4.7,25.97,5.88,27.77,15.14,23.04,61.87,30.11,84.91,11.11,8.25-6.81,11.56-15.38,13.72-20.98,1.38-3.59,5.15-14.43,1.31-52.45-.9-8.95-1.91-16.24-2.61-20.98"/>
  <path class="cls-1" d="m148.48,17.92c-.11,4.27-28.17,7.68-50.95,7.4-21.28-.25-48.28-3.84-48.33-8.02-.05-4.1,25.8-8.7,48.99-8.64,23.93.06,50.4,5.09,50.29,9.26Z"/>
  <path class="cls-1" d="m49.2,17.3c-2.65,12.73-5.48,32.24-3.92,56.15,1.33,20.46,4.7,25.97,5.88,27.77,15.14,23.04,61.87,30.11,84.91,11.11,8.25-6.81,11.56-15.38,13.72-20.98,1.38-3.59,5.15-14.43,1.31-52.45-.9-8.95-1.91-16.24-2.61-20.98"/>
  <path class="cls-1" d="m539.45,42.22c8.77.54,15.55.72,18.94.62.79-.02,2.2-.09,3.92-.62.63-.19,2.47-.82,4.57-2.47,3.9-3.05,4.51-6.32,6.53-6.17.74.06,1.23.54,1.31.62,1.79,1.82-.84,6.8-2.61,9.26-.91,1.26-3.77,5.13-9.14,6.79-2.11.65-3.73.7-7.84.62-3.83-.07-8.94-.24-15.02-.62"/>
  <path class="cls-1" d="m539.45,84.18c2.79-.4,5.06-.55,6.53-.62,6.8-.3,9.62.64,13.06-1.23,1.57-.86,2.85-2.07,3.27-2.47,0,0,1.95-1.87,3.27-4.32,3.58-6.65.44-11.21,3.27-20.98.96-3.31,2.02-5.23,3.92-6.17,2-.99,3.14-.02,5.23-1.23,2.49-1.45,2.29-3.68,4.57-4.32,1.24-.35,2.89-.13,3.27.62.43.86-1,2.07-4.57,6.17-.88,1.02-1.73,2.07-2.61,3.09-5.1,5.9-.42,19.53-6.53,29.62-.56.93-5.2,8.36-13.06,9.87-4.24.82-7.58-.45-15.68.62-2.82.37-5.75.88-7.18,1.23"/>
  <path class="cls-1" d="m581.91,41.29c-.09,1.08-.6,1.79-1.31,2.78-1.01,1.42-2.85,3.99-5.23,3.7-1.63-.2-3.16-1.68-3.27-3.09-.04-.46.12-.47,1.31-3.09.64-1.4.94-2.1,1.31-3.09.57-1.53.67-2.14,1.31-2.47.7-.37,1.52-.13,1.96,0,2.11.61,4.13,2.87,3.92,5.24Z"/>
  <path class="cls-1" d="m344.38,17.99c-.11,4.27-28.17,7.68-50.95,7.4-21.28-.25-48.28-3.84-48.33-8.02-.05-4.1,25.8-8.7,48.99-8.64,23.93.06,50.4,5.09,50.29,9.26Z"/>
  <path class="cls-1" d="m245.11,17.37c-2.65,12.73-5.48,32.24-3.92,56.15,1.33,20.46,4.7,25.97,5.88,27.77,15.14,23.04,61.87,30.11,84.91,11.11,8.25-6.81,11.56-15.38,13.72-20.98,1.38-3.59,5.15-14.43,1.31-52.45-.9-8.95-1.91-16.24-2.61-20.98"/>
  <path class="cls-1" d="m148.88,21.86c1.06-1.34,5.64-6.76,13.72-8.02,7.44-1.16,15.46,1.57,19.59,6.79,6.68,8.42,2.79,22.74-1.96,30.85-3.14,5.36-7.68,9.77-5.88,12.96,1.61,2.84,6.85,2.22,7.18,4.32.29,1.82-3.3,4.62-6.53,4.32-4.18-.39-6.39-5.82-6.53-6.17-4.43-11.25,13.52-21.06,9.8-34.55-.34-1.23-1.71-5.58-5.88-8.02-5.62-3.29-14.02-1.75-16.98,1.85-.51.62-1.31,1.85-1.96,3.09-1.05,2-1.61,3.78-1.96,4.94-.31,1.01-.52,1.86-.65,2.47"/>
  <path class="cls-1" d="m152.14,80.48c1.01-3.12,2.58-5,3.92-6.17,4.96-4.34,13.67-4.93,13.72-4.94h0c.32.6,1.27,2.18,3.27,3.09.5.23,1.69.75,3.27.62,1.84-.15,2.99-1.1,3.92-1.85.95-.78,1.23-1.36,1.31-1.85.04-.29.01-.49,0-.62-.04-.53.14-1.88,5.88-5.55.94-.6,1.16-.71,1.31-.62.67.41-.88,4.46-3.27,7.4-.6.74-3.11,3.71-7.84,5.55-7.25,2.83-11.23-.32-15.68,3.09-1.81,1.38-2.91,3.24-3.92,4.94-2.04,3.43-1.9,5.25-3.92,7.4-1.05,1.12-2.66,2.3-5.23,3.09"/>
  <path class="cls-1" d="m345.43,24.83c1.05-1.39,6.66-8.37,15.1-9.41,6.9-.85,15.1,1.86,18.92,7.15,2.21,3.06,2.51,6.38,6.05,7.86.16.07,3.48,1.41,5.3,0,2.21-1.71.47-6.13,1.51-6.43.76-.22,2.48,1.93,3.03,4.29.12.53.57,2.69-.76,5.72-1.2,2.74-2.78,3.75-4.54,5.72-5.95,6.65-2.74,11.74-8.32,15.73-1.67,1.19-3.76,2.02-3.78,3.57-.02,1.39,1.63,2.39,2.27,2.86,5.24,3.87,4.8,18.57-2.27,28.6-3.72,5.28-8.53,8.18-10.59,9.29-2.55,1.38-6.44,3.65-12.11,4.29-6.45.73-11.66-.97-14.38-2.11"/>
  <path class="cls-1" d="m346.08,32.24c1.17-.96,3.77-3.38,6.13-4.66,3.19-1.74,6.67-3.63,11.35-3.57,1.34.02,5.6.07,9.08,2.86.6.48,2.01,1.64,3.03,3.57,1.52,2.91.59,4.63,2.27,6.43,1.51,1.63,2.93.94,3.78,2.14,1.82,2.56-1.53,9.93-7.57,12.87-5.07,2.47-9.59.61-11.35,3.57-.74,1.24-.97,3.29,0,4.29.62.63,1.52.64,2.27.71,0,0,2.36.24,6.81,2.86,3.97,2.34,5.39,11.48,2.27,18.59-4.28,9.75-14.37,13.14-15.89,13.58-6.2,1.82-11.58.91-14.14.3"/>
</svg>