<?xml version="1.0" encoding="UTF-8"?>
<svg id="Lag_4" data-name="Lag 4" xmlns="http://www.w3.org/2000/svg" viewBox="0 0 587.64 148.72">
  <defs>
    <style>
      .cls-1 {
        fill: none;
        stroke: #80594a;
        stroke-miterlimit: 10;
      }
    </style>
  </defs>
  <path class="cls-1" d="m142.78,12.82c-.1,4.39-27.37,7.89-49.5,7.62-20.68-.26-46.92-3.95-46.96-8.25-.05-4.22,25.07-8.94,47.6-8.89,23.26.06,48.97,5.24,48.87,9.52Z"/>
  <path class="cls-1" d="m46.32,12.19c-2.57,13.1-5.32,33.16-3.81,57.75,1.3,21.05,4.56,26.71,5.71,28.56,14.71,23.7,60.12,30.96,82.51,11.42,8.02-7,11.23-15.82,13.33-21.58,1.34-3.69,5-14.84,1.27-53.95-.88-9.2-1.86-16.71-2.54-21.58"/>
  <path class="cls-1" d="m144.87,30.26c2.59-.17,6.56-.41,11.42-.63,10.81-.49,11.52-.21,13.33-1.27,4.05-2.39,6.74-7.5,10.79-8.89.74-.25,1.46-.36,1.9,0,1.07.85-.45,3.47.63,4.44.92.83,2.7-.43,3.81.63.49.47.22.79.63,1.27,1.26,1.46,4.5-.64,6.35.63,1.14.79,1.21,2.49,1.27,3.81.14,3.45-1.67,5.04-3.17,9.52-.49,1.46-.75,2.87-1.27,5.71-1.89,10.3-.44,21.99-2.54,30.46-2.44,9.86-11.23,21.54-23.48,23.48-10.98,1.74-19.92-5.12-22.21-6.98"/>
  <path class="cls-1" d="m145.5,38.51c4.4.29,8.09.18,10.79,0,8.33-.57,12.49-.85,15.23-3.17.63-.53,1.46-1.38,2.54-1.27,2.02.2,2.37,3.52,5.08,4.44,1.55.53,2.61-.61,3.17,0,.7.77-.7,2.56-1.27,5.08-.52,2.31.08,3.51.63,6.98,0,0,.31,1.93.63,8.89.2,4.28.63,13.22-4.14,20.99-1.34,2.19-4.85,7.94-11.73,10.11-10.84,3.42-20.71-4.95-21.58-5.71"/>
  <path class="cls-1" d="m532.43,14.26c-.1,4.33-27,7.79-48.83,7.51-20.39-.26-46.28-3.89-46.32-8.14-.05-4.16,24.73-8.82,46.95-8.76,22.94.06,48.3,5.17,48.2,9.39Z"/>
  <path class="cls-1" d="m437.28,13.63c-2.54,12.92-5.25,32.71-3.76,56.96,1.28,20.76,4.5,26.35,5.63,28.17,14.51,23.38,59.3,30.54,81.38,11.27,7.91-6.9,11.08-15.6,13.15-21.28,1.33-3.64,4.93-14.64,1.25-53.21-.87-9.08-1.83-16.48-2.5-21.28"/>
  <path class="cls-1" d="m342.66,13.34c-.1,4.41-27.47,7.92-49.68,7.64-20.75-.26-47.09-3.96-47.14-8.28-.05-4.23,25.16-8.98,47.77-8.92,23.34.06,49.15,5.26,49.05,9.55Z"/>
  <path class="cls-1" d="m245.84,12.7c-2.58,13.15-5.34,33.28-3.82,57.97,1.3,21.12,4.58,26.81,5.73,28.66,14.77,23.79,60.34,31.08,82.81,11.47,8.05-7.03,11.27-15.88,13.38-21.66,1.35-3.71,5.02-14.89,1.27-54.14-.88-9.24-1.86-16.77-2.55-21.66"/>
  <path class="cls-1" d="m533.19,21.76c1.03-1.45,4.88-6.46,11.89-8.14,6.75-1.61,12.75.74,16.28,3.13,7.92,5.37,11.49,16.5,10.02,25.67-2.44,15.22-20.11,33.22-24.41,36.93-.41.36-3.03,2.59-2.5,3.76.4.89,2.21.2,4.38,1.25,2.66,1.28,4.5,4.52,3.76,6.26-.42.98-1.32.73-1.88,1.88-.74,1.53.51,2.72,0,4.38-.39,1.26-1.51,1.91-2.5,2.5-2.17,1.29-5.07,1.58-7.51.63-1.8-.7-1.84-1.49-3.76-2.5-2.32-1.23-4.66-1.34-6.26-1.25"/>
  <path class="cls-1" d="m535.07,35.53c.12-6.75,4.23-12.53,10.02-14.4,6.27-2.02,12.51,1.19,15.65,5.01,7.19,8.75.4,23.57,0,24.41-6.57,13.87-20.45,24.82-21.91,27.54-.09.16-.46.92-1.25,1.25-.69.29-1.4.15-1.88,0"/>
  <path class="cls-1" d="m343.44,20.34c.76.26,1.5.37,1.91,0,.44-.4.28-1.17.64-1.27.39-.12.79.75,1.27.64.29-.07.24-.4.64-.64.39-.23.91-.2,1.27,0,.41.22.33.51.64.64.64.26,1.38-.87,1.91-.64.44.19.19,1.06.64,1.27.52.25,1.12-.82,1.91-.64.58.14,1.66,1.73,1.27,1.27h0c3.37.24,8.52,1.04,14.01,3.82,10.55,3.91,18.42,16.56,20.38,28.66,2.69,16.52-6.18,28.64-7.64,30.58-7.11,9.39-19.06,16.5-24.84,15.29-.65-.14-4.41-1.04-5.73.64-.45.58-.39,1.17-1.27,2.55-.67,1.05-1.19,1.85-1.91,1.91-.99.08-1.19-1.34-2.55-1.91-2.01-.84-3.84,1.34-5.1.64-.66-.37-1.19-1.55-.64-5.1"/>
  <path class="cls-1" d="m345.35,38.17c2.01-3.17,5.83-7.96,11.47-8.92,10.92-1.86,22.48,11.67,24.84,24.21,3.12,16.58-8.92,36.47-22.29,36.95-5.73.2-10.66-3.2-14.01-6.37"/>
  <rect class="cls-1" x="1.74" y="121.62" width="584.16" height="24.34"/>
</svg>