<?xml version="1.0" encoding="UTF-8"?>
<svg id="Lag_2" data-name="Lag 2" xmlns="http://www.w3.org/2000/svg" viewBox="0 0 804 533.71">
  <defs>
    <style>
      .cls-1 {
        fill: #7f5849;
        font-family: BaskervilleURW-Reg, 'Baskerville URW';
        font-size: 102.44px;
      }

      .cls-2 {
        opacity: .4;
      }

      .cls-2, .cls-3 {
        fill: none;
        stroke: #7f5849;
        stroke-miterlimit: 10;
      }
    </style>
  </defs>
  <g id="Lag_1-2" data-name="Lag 1">
    <g>
      <g>
        <path class="cls-3" d="m347.76,331.32c10.3,0,20.59,0,30.89,0"/>
        <path class="cls-3" d="m304.83,329.38c12.67,2.64,25.78,1.41,38.62,1.93"/>
        <path class="cls-3" d="m317.15,27.4c5.17,34.15,30.01,69.33,9.31,100.38-24.84,37.25-60.02,66.23-68.3,113.83-4.14,31.04,4.14,64.16,30.96,80.6"/>
        <path class="cls-3" d="m443.22,332.5c-6.55-.37-13.09-.78-19.65-1.02"/>
        <path class="cls-3" d="m519.02,316.63c-20.08,16.54-46.38,17.35-71.16,16.12"/>
        <path class="cls-3" d="m485.08,27.57c-9.61,29.84-15.82,58.82-17.89,89.86,22.77,31.04,47.6,57.95,66.23,91.06,2.07,4.14,4.14,10.35,6.21,14.49,8.28,31.04,6.21,68.3-18.37,91.47"/>
        <polyline class="cls-3" points="340.07 331.32 339.91 346.12 465.25 346.12 465.25 331.48"/>
        <ellipse class="cls-3" cx="402" cy="19.13" rx="101.41" ry="18.63"/>
        <ellipse class="cls-3" cx="402" cy="18.09" rx="70.37" ry="9.31"/>
      </g>
      <path class="cls-2" d="m540.25,255.77c.57,2.27.91,4.63.91,7.04,0,2.09-.24,4.14-.68,6.11.06.73.12,1.47.12,2.22,0,6.32-2.11,12.25-5.62,17.16-1.46,6.6-4.95,12.66-10.36,16.61-3.96,8.77-12.06,15.47-21.61,17.44-4.89,3.46-10.78,5.54-17.04,5.54-.75,0-1.49-.04-2.23-.09-3.85,1.84-8.1,2.91-12.55,2.91-2.56,0-5.05-.35-7.44-.99-1.26.17-2.52.29-3.82.29-1.56,0-3.08-.16-4.58-.41-1.25.2-2.52.33-3.81.37-2.07.47-4.2.74-6.38.74-4.18,0-8.18-.92-11.83-2.54-3.36.04-6.73.02-10.1-.02-1.57.27-3.17.44-4.81.44s-3.25-.18-4.83-.44c-4.15,2.21-8.83,3.49-13.74,3.49-3.7,0-7.25-.74-10.55-2.02-2.35-.46-4.62-1.17-6.76-2.15-2.12-.04-4.24-.07-6.38-.14-3.36,1.34-6.97,2.11-10.73,2.11-3.13,0-6.16-.51-9.02-1.45-3.28,1.27-6.81,2.01-10.47,2.01s-7.42-.77-10.79-2.11c-1.29-.08-2.56-.22-3.8-.46-2.68.83-5.49,1.28-8.4,1.28s-5.64-.44-8.29-1.23c-1.51.25-3.04.41-4.61.41-10.85,0-20.55-6.12-25.83-15.02-4.99-3.23-9.03-7.86-11.45-13.32-1.25-1.78-2.33-3.67-3.17-5.69-4.16-5.15-6.69-11.63-6.69-18.59,0-1.26.11-2.5.27-3.72-1.92-5.07-2.66-10.39-1.88-15.57C108.96,267.28.5,296.42.5,330.6c0,44.01,179.76,79.68,401.5,79.68s401.5-35.67,401.5-79.68c0-34.36-109.62-63.65-263.25-74.83Z"/>
      <path class="cls-3" d="m537.66,232.83c.07.8.13,1.6.13,2.42,0,.14-.02.28-.02.42,1.36,3.38,2.13,7.04,2.13,10.84,0,2.06-.23,4.08-.65,6.04,1.22,3.23,1.91,6.69,1.91,10.27,0,2.09-.24,4.14-.68,6.11.06.73.12,1.47.12,2.22,0,6.32-2.11,12.25-5.62,17.16-1.46,6.6-4.95,12.66-10.36,16.61-3.96,8.77-12.06,15.47-21.61,17.44-4.89,3.46-10.78,5.54-17.04,5.54-.75,0-1.49-.04-2.23-.09-3.85,1.84-8.1,2.91-12.55,2.91-2.56,0-5.05-.35-7.44-.99-1.26.17-2.52.29-3.82.29-1.56,0-3.08-.16-4.58-.41-1.25.2-2.52.33-3.81.37-2.07.47-4.2.74-6.38.74-4.18,0-8.18-.92-11.83-2.54-3.36.04-6.73.02-10.1-.02-1.57.27-3.17.44-4.81.44s-3.25-.18-4.83-.44c-4.15,2.21-8.83,3.49-13.74,3.49-3.7,0-7.25-.74-10.55-2.02-2.35-.46-4.62-1.17-6.76-2.15-2.12-.04-4.24-.07-6.38-.14-3.36,1.34-6.97,2.11-10.73,2.11-3.13,0-6.16-.51-9.02-1.45-3.28,1.27-6.81,2.01-10.47,2.01s-7.42-.77-10.79-2.11c-1.29-.08-2.56-.22-3.8-.46-2.68.83-5.49,1.28-8.4,1.28s-5.64-.44-8.29-1.23c-1.51.25-3.04.41-4.61.41-10.85,0-20.55-6.12-25.83-15.02-4.99-3.23-9.03-7.86-11.45-13.32-1.25-1.78-2.33-3.67-3.17-5.69-4.16-5.15-6.69-11.63-6.69-18.59,0-1.24.11-2.47.26-3.67-2.54-6.71-2.95-13.86-.63-20.53-.51-2.15-.81-4.38-.81-6.66,0-4.01.85-7.86,2.36-11.4C110.29,244.15.5,273.45.5,307.83c0,44.01,179.76,79.68,401.5,79.68s401.5-35.67,401.5-79.68c0-34.56-110.86-63.97-265.84-75.01Z"/>
      <path class="cls-2" d="m540.13,255.33c.65,2.41,1.03,4.91,1.03,7.48,0,2.09-.24,4.14-.68,6.11.06.73.12,1.47.12,2.22,0,6.32-2.11,12.25-5.62,17.16-1.46,6.6-4.95,12.66-10.36,16.61-3.96,8.77-12.06,15.47-21.61,17.44-4.89,3.46-10.78,5.54-17.04,5.54-.75,0-1.49-.04-2.23-.09-3.85,1.84-8.1,2.91-12.55,2.91-2.56,0-5.05-.35-7.44-.99-1.26.17-2.52.29-3.82.29-1.56,0-3.08-.16-4.58-.41-1.25.2-2.52.33-3.81.37-2.07.47-4.2.74-6.38.74-4.18,0-8.18-.92-11.83-2.54-3.36.04-6.73.02-10.1-.02-1.57.27-3.17.44-4.81.44s-3.25-.18-4.83-.44c-4.15,2.21-8.83,3.49-13.74,3.49-3.7,0-7.25-.74-10.55-2.02-2.35-.46-4.62-1.17-6.76-2.15-2.12-.04-4.24-.07-6.38-.14-3.36,1.34-6.97,2.11-10.73,2.11-3.13,0-6.16-.51-9.02-1.45-3.28,1.27-6.81,2.01-10.47,2.01s-7.42-.77-10.79-2.11c-1.29-.08-2.56-.22-3.8-.46-2.68.83-5.49,1.28-8.4,1.28s-5.64-.44-8.29-1.23c-1.51.25-3.04.41-4.61.41-10.85,0-20.55-6.12-25.83-15.02-4.99-3.23-9.03-7.86-11.45-13.32-1.25-1.78-2.33-3.67-3.17-5.69-4.16-5.15-6.69-11.63-6.69-18.59,0-1.26.11-2.5.27-3.73-1.89-5-2.64-10.25-1.91-15.36-91.73,10.04-153.91,29.4-153.91,51.66,0,32.58,133.07,58.98,297.21,58.98s297.21-26.41,297.21-58.98c0-22.88-65.67-42.72-161.64-52.5Z"/>
    </g>
    <text class="cls-1" transform="translate(192.87 504.41)"><tspan x="0" y="0">2017</tspan></text>
  </g>
</svg>