<?xml version="1.0" encoding="UTF-8"?>
<svg id="Lag_2" data-name="Lag 2" xmlns="http://www.w3.org/2000/svg" viewBox="0 0 109.81 103.58">
  <defs>
    <style>
      .cls-1 {
        fill: #7f5849;
      }

      .cls-2 {
        fill: none;
        stroke: #7f5849;
        stroke-miterlimit: 10;
      }
    </style>
  </defs>
  <g id="Lag_1-2" data-name="Lag 1">
    <path class="cls-1" d="M89.78,1h0c2.35,0,4.06,.55,5.91,1.89,4.58,3.32,4.9,8.03,5.88,22.01,.38,5.44,.85,12.22,1.71,20.8,1.25,12.43,2.62,21.73,3.71,29.19,2.23,15.14,3.06,20.81-1.25,24.98-1.98,1.91-4.19,2.7-7.63,2.7-2.67,0-6.01-.46-10.24-1.04-5.31-.73-11.92-1.64-20.69-2.17-4.29-.26-8.59-.39-12.76-.39-12.02,0-21.2,1.05-28.58,1.89-4.76,.54-8.52,.98-11.72,.98-5.04,0-8.05-1.14-10.41-3.93-.34-.4-.89-1.24-1.44-2.39-3.23-6.79,.18-13.09,4.5-21.08,3.17-5.85,6.76-12.49,8.25-20.55,1.89-10.26-.63-17.31-2.65-22.98-1.9-5.32-3.27-9.17-.42-13.52,2.87-4.37,7.23-4.89,18.88-6.28,5.26-.63,11.8-1.41,20.28-2.79,11.65-1.9,19.93-3.77,25.97-5.14,5.88-1.33,9.76-2.21,12.69-2.21M89.77,0c-6.15,0-15.82,3.6-38.82,7.36C23.25,11.88,15.62,10.02,11.13,16.86c-6.38,9.71,6.54,17.24,2.92,36.86-3.47,18.81-18.63,29.74-12.67,42.24,.6,1.25,1.19,2.14,1.58,2.6,2.75,3.26,6.24,4.28,11.17,4.28,8.27,0,20.59-2.87,40.29-2.87,3.93,0,8.16,.11,12.7,.39,15.91,.96,24.93,3.21,30.99,3.21,3.52,0,6.04-.76,8.33-2.98,6.91-6.69,1.7-16.52-2.16-54.99-3.11-30.91-1.14-38.54-8-43.52C94.25,.61,92.31,0,89.77,0h0Z"/>
    <path class="cls-2" d="M34.6,41.92c1.03,1.68,3.49,6.2,3.16,12.35-.42,7.82-5.04,12.78-6.26,14.01"/>
  </g>
</svg>