<?xml version="1.0" encoding="UTF-8"?>
<svg id="Lag_2" data-name="Lag 2" xmlns="http://www.w3.org/2000/svg" viewBox="0 0 815.6 489.5">
  <defs>
    <style>
      .cls-1 {
        letter-spacing: 0em;
      }

      .cls-2 {
        letter-spacing: .02em;
      }

      .cls-3 {
        font-size: 14px;
      }

      .cls-3, .cls-4, .cls-5 {
        fill: #7f5849;
        font-family: BaskervilleURW-Reg, 'Baskerville URW';
      }

      .cls-6 {
        letter-spacing: 0em;
      }

      .cls-4 {
        font-size: 12px;
      }

      .cls-7 {
        letter-spacing: 0em;
      }

      .cls-8 {
        letter-spacing: 0em;
      }

      .cls-9 {
        letter-spacing: -.02em;
      }

      .cls-10 {
        letter-spacing: 0em;
      }

      .cls-11 {
        fill: none;
        stroke: #7f5849;
        stroke-miterlimit: 10;
      }

      .cls-12 {
        letter-spacing: -.02em;
      }

      .cls-5 {
        font-size: 8px;
      }

      .cls-13 {
        letter-spacing: 0em;
      }

      .cls-14 {
        letter-spacing: .01em;
      }
    </style>
  </defs>
  <g id="Lag_1-2" data-name="Lag 1">
    <path class="cls-11" d="m56.81,100.05c19.41-1.15,49.8-2.78,87-4,128.3-4.22,210.57.69,339,4,51.48,1.33,127.1,2.83,220,3"/>
    <path class="cls-11" d="m68.81,185.05c23.64-1.17,59.03-2.74,102-4,117.01-3.42,190.9-1.31,273-1,61.69.24,152.32-.42,265-5"/>
    <path class="cls-11" d="m64.81,267.05c27.25-1.09,71.46-2.72,126-4,96.67-2.27,166.3-2.06,335-2,47.77.02,124.12.02,174,0"/>
    <path class="cls-11" d="m66.81,342.05c51.11-1.77,102.78-3.11,155-4,165.51-2.81,325.96-.85,481,5"/>
    <path class="cls-11" d="m129.81,2.05c-3.86,14.89-8.59,37.39-10,65-1.82,35.65,3.01,58.26,8,91,11.57,75.97,13.57,113.32,13.51,136.69-.02,8.18-.28,14.13-.51,20.31-1.81,48.92-7.29,88.17-12,115"/>
    <path class="cls-11" d="m231.81,3.05c-6.84,61.77-6.53,111.83-5,146,2.72,60.77,10.07,88.02,11,147,.87,55.27-4.48,100.21-9,129"/>
    <path class="cls-11" d="m333.81,2.05c-4.87,60.21-4.89,109.29-4,143,1.78,67.46,8.22,98.14,8,163-.18,51.84-4.42,94.18-8,122"/>
    <path class="cls-11" d="m438.81,2.05c3.38,24.46,7.7,62.38,9,109,1.01,36.34.2,66.11-6,168-2.27,37.27-5.25,84.34-9,139"/>
    <path class="cls-11" d="m539.81,1.05c5.84,28.06,13.11,71.89,14,126,.84,51.07-4.26,80.14-10,158-2.33,31.55-5.31,78.71-7,137"/>
    <path class="cls-11" d="m642.81.05c7.29,66.02,8.33,119.28,8,155-.51,55.84-4.95,84.67-6,154-.77,50.76.65,92.38,2,120"/>
    <path class="cls-11" d="m17.7.95C4.74,39.03,1.51,69.87.7,89.56c-3.9,95.15,49.94,144.39,32.39,239.07-3.37,18.2-8.31,32.71-11.61,41.41"/>
    <path class="cls-11" d="m678.25,485.12c-22.31-4.97-56.3-11.52-98.08-15.4-98.9-9.2-166.06,3.54-242.37,11.35-57.6,5.89-140.9,11.07-244.81,5.67"/>
    <text class="cls-3" transform="translate(585.49 34.51)"><tspan x="0" y="0">LØR</tspan></text>
    <text class="cls-3" transform="translate(268.84 197.66)"><tspan x="0" y="0">ONS</tspan></text>
    <path class="cls-11" d="m611.09,46.39c-.03,1.08-6.73,1.94-12.18,1.87-5.09-.06-11.54-.97-11.55-2.03-.01-1.04,6.17-2.2,11.71-2.19,5.72.02,12.05,1.29,12.02,2.34Z"/>
    <path class="cls-11" d="m587.36,46.23c-.63,3.22-1.31,8.16-.94,14.21.32,5.18,1.12,6.57,1.41,7.03,3.62,5.83,14.79,7.62,20.3,2.81,1.97-1.72,2.76-3.89,3.28-5.31.33-.91,1.23-3.65.31-13.27-.22-2.26-.46-4.11-.62-5.31"/>
    <path class="cls-11" d="m611.34,48.12c.25-.35,1.59-2.12,3.61-2.38,1.65-.22,3.61.47,4.52,1.81.53.78.6,1.61,1.45,1.99.04.02.83.36,1.27,0,.53-.43.11-1.55.36-1.63.18-.06.59.49.72,1.09.03.13.14.68-.18,1.45-.29.69-.66.95-1.09,1.45-1.42,1.68-.66,2.97-1.99,3.98-.4.3-.9.51-.9.9,0,.35.39.6.54.72,1.25.98,1.15,4.7-.54,7.24-.89,1.34-2.04,2.07-2.53,2.35-.61.35-1.54.92-2.89,1.09-1.54.18-2.79-.25-3.44-.53"/>
    <path class="cls-11" d="m611.5,49.99c.28-.24.9-.85,1.46-1.18.76-.44,1.59-.92,2.71-.9.32,0,1.34.02,2.17.72.14.12.48.41.72.9.36.74.14,1.17.54,1.63.36.41.7.24.9.54.43.65-.37,2.51-1.81,3.26-1.21.62-2.29.15-2.71.9-.18.31-.23.83,0,1.09.15.16.36.16.54.18,0,0,.56.06,1.63.72.95.59,1.29,2.91.54,4.7-1.02,2.47-3.43,3.32-3.8,3.44-1.48.46-2.77.23-3.38.08"/>
    <path class="cls-11" d="m295.78,207.97c-.03,1.13-7.03,2.03-12.71,1.96-5.31-.07-12.05-1.01-12.06-2.12-.01-1.08,6.44-2.3,12.22-2.28,5.97.02,12.57,1.35,12.55,2.44Z"/>
    <path class="cls-11" d="m271.01,207.81c-.66,3.36-1.37,8.51-.98,14.83.33,5.4,1.17,6.86,1.47,7.33,3.78,6.09,15.44,7.95,21.18,2.93,2.06-1.8,2.88-4.06,3.42-5.54.35-.95,1.28-3.81.33-13.85-.23-2.36-.48-4.29-.65-5.54"/>
    <path class="cls-11" d="m295.88,209.01c.27-.35,1.41-1.78,3.42-2.12,1.86-.31,3.86.41,4.89,1.79,1.67,2.22.7,6.01-.49,8.15-.78,1.42-1.92,2.58-1.47,3.42.4.75,1.71.59,1.79,1.14.07.48-.82,1.22-1.63,1.14-1.04-.1-1.6-1.54-1.63-1.63-1.1-2.97,3.37-5.56,2.44-9.13-.08-.32-.43-1.47-1.47-2.12-1.4-.87-3.5-.46-4.24.49-.13.16-.33.49-.49.81-.26.53-.4,1-.49,1.3-.08.27-.13.49-.16.65"/>
    <path class="cls-11" d="m296.69,224.49c.25-.82.64-1.32.98-1.63,1.24-1.14,3.41-1.3,3.42-1.3h0c.08.16.32.58.81.81.13.06.42.2.81.16.46-.04.75-.29.98-.49.24-.21.31-.36.33-.49.01-.08,0-.13,0-.16-.01-.14.04-.5,1.47-1.47.23-.16.29-.19.33-.16.17.11-.22,1.18-.81,1.96-.15.2-.78.98-1.96,1.47-1.81.75-2.8-.08-3.91.81-.45.36-.73.86-.98,1.3-.51.9-.47,1.39-.98,1.96-.26.3-.66.61-1.3.81"/>
    <text class="cls-5" transform="translate(266.89 244.18)"><tspan x="0" y="0">juni ma</tspan><tspan class="cls-10" x="24.65" y="0">r</tspan><tspan class="cls-12" x="27.5" y="0">k</tspan><tspan x="31.02" y="0">ed</tspan></text>
    <text class="cls-5" transform="translate(576.62 84.94)"><tspan class="cls-2" x="0" y="0">k</tspan><tspan class="cls-6" x="3.89" y="0">r</tspan><tspan x="6.86" y="0">ammer ma</tspan><tspan class="cls-10" x="42.28" y="0">r</tspan><tspan class="cls-12" x="45.14" y="0">k</tspan><tspan x="48.65" y="0">ed</tspan></text>
    <path class="cls-11" d="m754.94,372.71c12.96-38.08,16.19-68.91,17-88.6,3.9-95.15-49.94-144.39-32.39-239.07,3.37-18.2,8.31-32.71,11.61-41.41"/>
    <text class="cls-4" transform="translate(340.68 33.01)"><tspan x="0" y="0">1</tspan></text>
    <text class="cls-4" transform="translate(451.43 33.52)"><tspan x="0" y="0">2</tspan></text>
    <text class="cls-4" transform="translate(553.17 33.95)"><tspan x="0" y="0">3</tspan></text>
    <text class="cls-4" transform="translate(653.83 33.42)"><tspan x="0" y="0">4</tspan></text>
    <text class="cls-4" transform="translate(52.69 115.88)"><tspan x="0" y="0">5</tspan></text>
    <text class="cls-4" transform="translate(127.97 114.13)"><tspan x="0" y="0">6</tspan></text>
    <text class="cls-4" transform="translate(235.32 114.59)"><tspan x="0" y="0">7</tspan></text>
    <text class="cls-4" transform="translate(338.46 115.26)"><tspan x="0" y="0">8</tspan></text>
    <text class="cls-4" transform="translate(458.37 114.82)"><tspan x="0" y="0">9</tspan></text>
    <text class="cls-4" transform="translate(561.04 115.69)"><tspan x="0" y="0">10</tspan></text>
    <text class="cls-4" transform="translate(658.42 115.42)"><tspan x="0" y="0">11</tspan></text>
    <text class="cls-4" transform="translate(52.73 196.67)"><tspan x="0" y="0">12</tspan></text>
    <text class="cls-4" transform="translate(140.86 197.61)"><tspan x="0" y="0">13</tspan></text>
    <text class="cls-4" transform="translate(236.34 195.91)"><tspan x="0" y="0">14</tspan></text>
    <text class="cls-4" transform="translate(340.9 195.54)"><tspan x="0" y="0">15</tspan></text>
    <text class="cls-4" transform="translate(456.02 195.91)"><tspan x="0" y="0">16</tspan></text>
    <text class="cls-4" transform="translate(559.25 196.1)"><tspan x="0" y="0">17</tspan></text>
    <text class="cls-4" transform="translate(657.68 195.87)"><tspan x="0" y="0">18</tspan></text>
    <text class="cls-4" transform="translate(53.22 285.27)"><tspan x="0" y="0">19</tspan></text>
    <text class="cls-4" transform="translate(149.49 285.1)"><tspan x="0" y="0">20</tspan></text>
    <text class="cls-4" transform="translate(247.03 285.8)"><tspan x="0" y="0">21</tspan></text>
    <text class="cls-4" transform="translate(346.5 285.73)"><tspan x="0" y="0">22</tspan></text>
    <text class="cls-4" transform="translate(451.1 285.1)"><tspan x="0" y="0">23</tspan></text>
    <text class="cls-4" transform="translate(552.26 284.61)"><tspan x="0" y="0">24</tspan></text>
    <text class="cls-4" transform="translate(653.76 285.88)"><tspan x="0" y="0">25</tspan></text>
    <text class="cls-4" transform="translate(51.81 358.17)"><tspan x="0" y="0">26</tspan></text>
    <text class="cls-4" transform="translate(148.5 358.69)"><tspan x="0" y="0">27</tspan></text>
    <text class="cls-4" transform="translate(246.15 357.72)"><tspan x="0" y="0">28</tspan></text>
    <text class="cls-4" transform="translate(345.13 357.67)"><tspan x="0" y="0">29</tspan></text>
    <text class="cls-4" transform="translate(445.81 357.71)"><tspan x="0" y="0">30</tspan></text>
    <text class="cls-5" transform="translate(584.64 92.97) rotate(.58)"><tspan class="cls-9" x="0" y="0">v</tspan><tspan x="3.57" y="0">ed i</tspan><tspan class="cls-1" x="15.29" y="0">n</tspan><tspan class="cls-8" x="19.53" y="0">g</tspan><tspan x="23.29" y="0">e</tspan><tspan class="cls-14" x="26.79" y="0">r</tspan><tspan class="cls-13" x="29.82" y="0">sl</tspan><tspan class="cls-7" x="34.49" y="0">e</tspan><tspan x="37.96" y="0">v</tspan></text>
    <text class="cls-5" transform="translate(260.83 253.9)"><tspan class="cls-9" x="0" y="0">v</tspan><tspan x="3.57" y="0">ed </tspan><tspan class="cls-7" x="13.27" y="0">g</tspan><tspan x="17.02" y="0">odsbanen</tspan></text>
  </g>
</svg>