<?xml version="1.0" encoding="UTF-8"?>
<svg id="Lag_2" data-name="Lag 2" xmlns="http://www.w3.org/2000/svg" viewBox="0 0 745.49 732.8">
  <defs>
    <style>
      .cls-1 {
        fill: none;
        stroke: #7f5849;
        stroke-miterlimit: 10;
      }

      .cls-2 {
        fill: #7f5849;
        font-family: BaskervilleURW-Reg, 'Baskerville URW';
        font-size: 109.42px;
      }
    </style>
  </defs>
  <g id="Lag_1-2" data-name="Lag 1">
    <g>
      <polyline class="cls-1" points=".04 393.34 684.98 333.09 684.98 724.13"/>
      <line class="cls-1" x1="22.59" y1="351.99" x2="124.28" y2="343.46"/>
      <line class="cls-1" x1="175.54" y1="335.88" x2="298.88" y2="324.26"/>
      <line class="cls-1" x1="371.41" y1="314.59" x2="527.28" y2="296.7"/>
      <line class="cls-1" x1="168.31" y1="328.73" x2="307.94" y2="314.42"/>
      <line class="cls-1" x1="360.56" y1="303.15" x2="527.13" y2="284.8"/>
      <line class="cls-1" x1="12.22" y1="342.79" x2="130.99" y2="331.55"/>
      <polygon class="cls-1" points="12.01 463.95 193.54 453.09 193.54 692.06 12.37 677.5 12.01 463.95"/>
      <polygon class="cls-1" points="360.41 449.3 360.9 703.8 615.72 715.31 615.72 430.86 360.41 449.3"/>
      <line class="cls-1" x1="295.14" y1="575.57" x2="355.18" y2="573.08"/>
      <line class="cls-1" x1="341.17" y1="582.15" x2="357.71" y2="582.15"/>
      <line class="cls-1" x1="339.62" y1="586.06" x2="342.51" y2="721.12"/>
      <line class="cls-1" x1="330.58" y1="582.15" x2="332.39" y2="721.12"/>
      <polyline class="cls-1" points="327.32 582.15 305.98 582.15 330.58 604.28"/>
      <line class="cls-1" x1="341.17" y1="611.51" x2="360.41" y2="628.15"/>
      <line class="cls-1" x1="130.97" y1="582.15" x2="130.97" y2="705.45"/>
      <polyline class="cls-1" points="127.05 582.15 115.27 582.15 111.34 575.57 119.19 572.58 134.25 572.58 147.99 574.33 159.77 582.15 176.77 596.94 268.84 672.57 273.77 677.5 268.84 682.43 149.96 582.15 137.52 582.15 140.61 705.45"/>
      <polyline class="cls-1" points="32.1 231.97 32.1 325.14 123.86 317.18 119.23 192.52"/>
      <polyline class="cls-1" points="193.54 152.42 192.55 304.98 303.57 298.35 303.57 134.7"/>
      <polyline class="cls-1" points="392.14 134.98 392.14 282.96 527.28 271.37 523.66 241.84"/>
      <polygon class="cls-1" points="77.98 313.36 77.98 174.35 50.19 177.72 50.19 313.36 77.98 313.36"/>
      <polygon class="cls-1" points="92.93 169.5 92.93 313.36 118.61 307.29 115.24 169.5 92.93 169.5"/>
      <polygon class="cls-1" points="209.65 144.84 212.94 294.44 243.05 290.69 242.14 134.98 209.65 144.84"/>
      <polygon class="cls-1" points="260.62 134.98 260.62 290.69 295.14 290.69 295.14 127.58 260.62 134.98"/>
      <polyline class="cls-1" points="411.36 127.58 411.36 269.69 449.35 263.81 449.35 131.33"/>
      <polyline class="cls-1" points="472.1 127.58 472.1 263.81 516.82 258.83 516.82 243.85"/>
      <polygon class="cls-1" points="591.9 243.85 592.84 243.85 594.35 248.41 596 250.06 598.61 250.06 599.28 230.33 596.54 230.33 595.59 232.44 594.35 235.26 574.62 235.26 574.62 160.18 592.46 160.18 592.71 164.57 594.35 166.21 597.64 166.21 597.64 149.77 594.98 149.77 592.71 153.06 574.62 152.93 574.62 141.91 502.36 134.98 502.36 239.56 572.98 245.12 574.62 245.12 574.62 243.48 591.9 243.85"/>
      <polyline class="cls-1" points="502.36 134.98 485.35 134.98 486.67 241.01 502.36 239.56"/>
      <polygon class="cls-1" points="506.77 198.63 513.39 198.63 513.39 160.49 527.28 202.07 534.5 202.07 534.5 146 526.31 146 527.28 184.12 509.69 140.73 504.25 140.73 504.25 198.63 506.77 198.63"/>
      <path class="cls-1" d="m537.63,148.95v17.84-17.84Z"/>
      <polygon class="cls-1" points="545.84 148.95 545.85 155.53 539.85 155.53 545.85 165.22 542.85 166.79 539.85 157.87 539.85 168.05 537.63 166.79 537.63 148.95 545.84 148.95"/>
      <polygon class="cls-1" points="557.36 150.59 562.53 150.59 550.82 183.49 562.53 183.49 563.79 171.4 569.78 171.4 568.87 204.85 563.48 204.85 562.29 191.69 541.74 190.42 541.74 181.91 555.76 150.59 557.36 150.59"/>
      <polyline class="cls-1" points="54.82 130.87 54.82 157.87 77.98 153.06 77.98 130.87"/>
      <polyline class="cls-1" points="96.39 130.87 96.39 148.95 123.86 144.37 123.86 134.7"/>
      <polyline class="cls-1" points="209.65 130.87 209.65 134.98 226.35 132.92"/>
      <polyline class="cls-1" points="357.71 715.31 303.57 732.29 124.28 715.31 192.55 705.45"/>
      <polyline class="cls-1" points="143.07 701.34 192.55 703.34 192.55 694.62 143.07 692.06"/>
      <line class="cls-1" x1="129.48" y1="692.06" x2="8.26" y2="679.96"/>
      <polyline class="cls-1" points="127.45 700.51 5.8 689.01 5.8 392.84"/>
      <polyline class="cls-1" points="357.71 703.34 351.86 703.34 351.86 715.31 684.98 729.32"/>
      <line class="cls-1" x1="364.59" y1="705.45" x2="681.9" y2="718.87"/>
      <polyline class="cls-1" points="289 575.57 279.24 575.57 273.77 582.15 281.39 586.06 292.49 586.06 303.57 586.06 398.71 665.99"/>
      <line class="cls-1" x1="696.51" y1="729.32" x2="745.46" y2="732.29"/>
      <polyline class="cls-1" points="274.82 543.42 274.82 499.55 199.79 481.36 199.79 591.78"/>
      <polyline class="cls-1" points="199.79 628.15 199.79 692.06 260.62 692.06"/>
      <polyline class="cls-1" points="350.79 510.29 286.67 510.12 286.67 568"/>
      <line class="cls-1" x1="286.67" y1="593.21" x2="286.67" y2="729.32"/>
      <rect class="cls-1" x="286.67" y="476.29" width="64.12" height="24.8"/>
      <polyline class="cls-1" points="357.71 528.61 298.88 528.61 298.88 568"/>
      <line class="cls-1" x1="298.88" y1="591.78" x2="298.88" y2="724.13"/>
      <line class="cls-1" x1="12.22" y1="449.3" x2="681.9" y2="415.35"/>
    </g>
    <text class="cls-2" transform="translate(348.37 91.2) scale(1.14 1)"><tspan x="0" y="0">2023</tspan></text>
  </g>
</svg>