<?xml version="1.0" encoding="UTF-8"?>
<svg id="Lag_2" data-name="Lag 2" xmlns="http://www.w3.org/2000/svg" viewBox="0 0 493.39 2931.46">
  <defs>
    <style>
      .cls-1 {
        stroke: #ef7b32;
      }

      .cls-1, .cls-2 {
        fill: none;
        stroke-miterlimit: 10;
        stroke-width: 4.41px;
      }

      .cls-2 {
        opacity: .4;
        stroke: #f8c576;
      }
    </style>
  </defs>
  <g id="Lag_1-2" data-name="Lag 1">
    <path class="cls-1" d="M375.11,2.34C254.11,36.37,119.8,90.02,106.15,170.58c-17.52,103.33,180.49,150.34,187.58,280.15,8.47,155.14-267.32,217.37-244.15,344.32,23.21,127.2,311.87,129.33,340.42,259.8,29.61,135.37-264.02,211.24-244.15,364.66,17.92,138.37,267.62,160.22,274.91,287.97,8.25,144.54-306.14,208.14-299.72,331.79,1.32,25.39-3.39,57.81,10.37,93.35,51.38,132.67,282.13,72.43,341.54,186.72,38.12,73.34-8.81,182.63-57,241-92.11,111.58-233.44,91.2-251,173-10.67,49.67,32.87,97.14,52,118,96.97,105.73,259.9,74.36,276,71"/>
    <path class="cls-2" d="M329.11,2.12C208.12,36.16,73.81,89.8,60.16,170.37c-17.52,103.33,180.49,150.34,187.58,280.15C256.2,605.66-19.58,667.88,3.59,794.83c23.21,127.2,311.87,129.33,340.42,259.8,29.61,135.37-264.02,211.24-244.15,364.66,17.92,138.37,267.62,160.22,274.91,287.97,8.25,144.54-306.14,208.14-299.72,331.79,1.32,25.39-3.39,57.81,10.37,93.35,51.38,132.67,282.13,72.43,341.54,186.72,38.12,73.34-8.81,182.63-57,241-92.11,111.58-233.44,91.2-251,173-10.67,49.67,32.87,97.14,52,118,96.97,105.73,259.9,74.36,276,71"/>
  </g>
</svg>