<?xml version="1.0" encoding="UTF-8"?>
<svg id="Lag_2" data-name="Lag 2" xmlns="http://www.w3.org/2000/svg" viewBox="0 0 105.72 130.57">
  <defs>
    <style>
      .cls-1 {
        fill: #cc6d30;
      }
    </style>
  </defs>
  <g id="Lag_1-2" data-name="Lag 1">
    <path class="cls-1" d="m29.52,2.32C4.52,24.32,5.74,17.73,1.52,32.32c-3.77,13.03.65,15.39.65,40.18,0,2.57-.41,10.59,3.78,19.32.64,1.33,3.3,6.67,9.24,12.18,3.41,3.16,40.98,38.04,70.15,22.68,11.01-5.8,22.01-19.38,20.16-31.93-2.53-17.16-10.47-28.51-9.99-41.44.39-10.62-10.91,17.88,0,0,9.77-16.01-4.18-23-13-29-7.22-4.91-41.23-32.36-53-22Z"/>
  </g>
</svg>