<?xml version="1.0" encoding="UTF-8"?>
<svg id="Lag_2" data-name="Lag 2" xmlns="http://www.w3.org/2000/svg" xmlns:xlink="http://www.w3.org/1999/xlink" viewBox="0 0 2600.81 666">
  <defs>
    <style>
      .cls-1 {
        fill: none;
      }

      .cls-2 {
        clip-path: url(#clippath);
      }

      .cls-3 {
        fill: #f07a33;
      }

      .cls-4 {
        fill: #fce8c7;
      }
    </style>
    <clipPath id="clippath">
      <rect class="cls-1" x=".89" y="3.53" width="2599.02" height="658.93" transform="translate(-.9 3.54) rotate(-.16)"/>
    </clipPath>
  </defs>
  <g id="Lag_2-2" data-name="Lag 2">
    <g id="Lag_1-2" data-name="Lag 1-2">
      <g class="cls-2">
        <g>
          <path class="cls-4" d="m2600.16,443.36l-.86-1.03h0c-19.61,12.66-43.59,26.22-70.44,36.63-26.84,10.41-56.54,17.67-87.59,17.76-12.12.03-24.44-1.02-36.9-3.42-23.87-4.6-42.15-12.92-57.8-23.35-23.48-15.66-41.04-36.1-62.51-55.79-21.46-19.68-46.85-38.59-85.95-51.05-27.73-8.83-55.92-12.38-83.42-12.3-52.3.14-102.16,13.35-141.91,28.16-39.75,14.81-69.42,31.22-81.28,37.78-40.69,22.5-58.21,40.32-73.85,55.69-7.82,7.69-15.16,14.76-24.72,21.54-9.56,6.78-21.33,13.28-38.03,19.8-35.66,13.94-76.37,21.19-117.62,21.3-70.54.19-142.59-20.5-193.57-64.28-17.56-15.08-28.69-29.52-36.5-43.42-11.71-20.84-15.95-40.46-23.13-59.14-7.19-18.68-17.37-36.42-40.95-53.26-33.42-23.87-77.2-34.21-124.67-34.08-87.13.24-186.76,35.71-258.19,87.87-44.66,32.62-61.7,59.71-77.24,82.81-7.77,11.55-15.16,22.09-25.46,31.89-10.29,9.79-23.49,18.83-42.91,27.39-33.99,14.95-69.97,20.83-105.38,20.93-59.23.16-116.84-15.86-160.75-32.6-43.91-16.74-74.11-34.18-78.53-36.8-36.35-21.54-62.78-44.26-79.44-60.12l-1.07.86c16.71,15.91,43.24,38.7,79.7,60.32,4.48,2.65,34.74,20.13,78.76,36.91,44.02,16.78,101.81,32.86,161.33,32.71,35.58-.1,71.8-6.01,106.02-21.06,19.56-8.6,32.92-17.75,43.34-27.66,7.81-7.43,13.95-15.27,19.83-23.6,17.6-25,32.69-54.4,82.75-90.98,71.16-51.98,170.57-87.34,257.27-87.57,47.23-.13,90.66,10.15,123.75,33.79,15.56,11.12,25.19,22.57,32,34.47,10.22,17.84,14.1,36.74,22.02,56.91,7.93,20.17,19.95,41.59,46.46,64.35,51.31,44.06,123.73,64.83,194.58,64.64,41.44-.11,82.35-7.39,118.21-21.41,16.79-6.57,28.7-13.12,38.35-19.97,7.25-5.14,13.23-10.44,19.06-16.01,17.51-16.72,33.74-35.88,79.36-61.14,11.85-6.56,41.44-22.92,81.07-37.69,39.64-14.77,89.33-27.91,141.34-28.05,27.37-.07,55.38,3.45,82.93,12.22,25.9,8.25,45.7,19.33,62.37,31.61,25.02,18.41,42.95,39.55,63.67,57.88,20.71,18.31,44.26,33.81,80.4,40.74,12.56,2.42,24.99,3.48,37.21,3.45,31.3-.09,61.2-7.41,88.17-17.87,26.97-10.46,51.04-24.08,70.71-36.77"/>
          <path class="cls-3" d="m2599.26,402.68c-19.61,12.66-43.59,26.22-70.44,36.63-26.84,10.41-56.54,17.67-87.59,17.76-12.12.03-24.44-1.02-36.9-3.42-23.87-4.6-42.15-12.92-57.81-23.35-23.48-15.66-41.04-36.1-62.51-55.79-21.46-19.68-46.85-38.59-85.95-51.05-27.73-8.83-55.92-12.38-83.42-12.3-52.3.14-102.16,13.35-141.91,28.16-39.75,14.81-69.42,31.22-81.28,37.78-40.69,22.5-58.21,40.32-73.85,55.69-7.82,7.69-15.16,14.76-24.72,21.54-9.56,6.78-21.33,13.28-38.03,19.8-35.66,13.93-76.37,21.19-117.63,21.3-70.54.19-142.59-20.49-193.56-64.28-17.56-15.08-28.69-29.53-36.5-43.42-11.71-20.83-15.95-40.45-23.13-59.14-7.19-18.68-17.37-36.42-40.95-53.26-33.42-23.87-77.2-34.21-124.67-34.08-87.13.24-186.76,35.71-258.19,87.86-44.66,32.62-61.7,59.71-77.24,82.81-7.77,11.55-15.16,22.09-25.46,31.89-10.29,9.79-23.49,18.83-42.91,27.39-33.99,14.95-69.97,20.83-105.38,20.93-59.23.16-116.84-15.86-160.75-32.6-43.91-16.74-74.11-34.18-78.53-36.8-36.35-21.54-62.78-44.26-79.44-60.12l-1.07.86c16.71,15.91,43.23,38.71,79.7,60.32,4.48,2.65,34.74,20.13,78.76,36.91,44.02,16.78,101.81,32.87,161.33,32.71,35.58-.1,71.8-6.01,106.02-21.06,19.56-8.6,32.92-17.75,43.34-27.66,7.81-7.43,13.95-15.27,19.83-23.6,17.6-25,32.69-54.4,82.75-90.98,71.16-51.98,170.57-87.34,257.27-87.57,47.23-.13,90.66,10.16,123.75,33.79,15.56,11.12,25.19,22.57,32,34.47,10.22,17.84,14.1,36.74,22.02,56.91,7.93,20.17,19.95,41.59,46.46,64.35,51.31,44.06,123.73,64.83,194.58,64.64,41.44-.11,82.35-7.39,118.21-21.41,16.79-6.57,28.7-13.13,38.35-19.97,7.25-5.14,13.23-10.44,19.06-16.01,17.51-16.72,33.74-35.88,79.36-61.14,11.85-6.56,41.44-22.92,81.07-37.69,39.64-14.77,89.33-27.91,141.34-28.05,27.37-.07,55.38,3.45,82.93,12.22,25.9,8.25,45.7,19.33,62.37,31.61,25,18.42,42.95,39.55,63.67,57.88,20.71,18.31,44.26,33.81,80.4,40.74,12.56,2.42,24.99,3.48,37.21,3.45,31.3-.09,61.2-7.41,88.17-17.87,26.97-10.44,51.05-24.06,70.71-36.75l-.86-1.03Z"/>
        </g>
      </g>
    </g>
  </g>
</svg>