<?xml version="1.0" encoding="UTF-8"?>
<svg id="Lag_2" data-name="Lag 2" xmlns="http://www.w3.org/2000/svg" xmlns:xlink="http://www.w3.org/1999/xlink" viewBox="0 0 658.93 2284.09">
  <defs>
    <style>
      .cls-1 {
        fill: none;
      }

      .cls-2 {
        clip-path: url(#clippath);
      }

      .cls-3 {
        fill: #f07a33;
      }

      .cls-4 {
        fill: #fce8c7;
      }
    </style>
    <clipPath id="clippath">
      <rect class="cls-1" width="658.93" height="2284.09"/>
    </clipPath>
  </defs>
  <g id="Lag_1-2" data-name="Lag 1">
    <g class="cls-2">
      <path class="cls-4" d="m443.36.05l-1.03.75h0c12.61,17.26,26.1,38.37,36.44,61.99,10.34,23.61,17.52,49.73,17.52,77.02,0,10.65-1.09,21.48-3.52,32.42-4.66,20.97-13.03,37.01-23.51,50.74-15.72,20.6-36.21,35.98-55.96,54.8-19.74,18.81-38.72,41.08-51.28,75.41-8.91,24.35-12.53,49.11-12.53,73.28,0,45.96,13.07,89.81,27.77,124.78,14.7,34.97,31.03,61.08,37.56,71.52,22.39,35.81,40.16,51.25,55.49,65.03,7.67,6.89,14.72,13.36,21.47,21.78,6.75,8.42,13.22,18.78,19.7,33.47,13.84,31.37,20.98,67.17,20.98,103.42,0,61.99-20.89,125.26-64.81,169.96-15.13,15.4-29.6,25.14-43.52,31.97-20.87,10.24-40.5,13.92-59.2,20.19-18.7,6.27-36.47,15.18-53.37,35.86-23.96,29.31-34.42,67.76-34.42,109.48,0,76.57,35.2,164.21,87.17,227.11,32.5,39.33,59.54,54.37,82.6,68.08,11.53,6.86,22.05,13.38,31.82,22.45,9.76,9.07,18.77,20.69,27.27,37.78,14.86,29.91,20.64,61.54,20.64,92.66,0,52.05-16.18,102.64-33.04,141.19-16.86,38.55-34.38,65.05-37.01,68.93-21.64,31.89-44.43,55.07-60.34,69.67l.86.94c15.96-14.65,38.82-37.91,60.54-69.9,2.66-3.93,20.22-30.48,37.12-69.13,16.9-38.65,33.14-89.39,33.15-141.7,0-31.27-5.81-63.11-20.77-93.22-8.55-17.21-17.66-28.97-27.54-38.15-7.41-6.88-15.23-12.3-23.55-17.48-24.95-15.53-54.31-28.86-90.75-72.94-51.79-62.66-86.88-150.11-86.87-226.3,0-41.51,10.4-79.65,34.13-108.67,11.16-13.65,22.64-22.08,34.56-28.04,17.87-8.94,36.78-12.3,56.97-19.22,20.19-6.92,41.64-17.43,64.48-40.68,44.2-44.99,65.17-108.58,65.17-170.85,0-36.42-7.17-72.39-21.09-103.94-6.52-14.77-13.04-25.25-19.87-33.75-5.12-6.38-10.4-11.65-15.96-16.79-16.67-15.43-35.79-29.74-60.92-69.89-6.53-10.43-22.81-36.47-37.47-71.34-14.66-34.87-27.67-78.57-27.67-124.28,0-24.05,3.6-48.66,12.45-72.85,8.32-22.74,19.45-40.12,31.78-54.74,18.48-21.94,39.67-37.65,58.05-55.82,18.37-18.16,33.93-38.82,40.96-70.56,2.45-11.03,3.55-21.95,3.55-32.69,0-27.51-7.24-53.8-17.63-77.53-10.39-23.73-23.94-44.91-36.58-62.23"/>
      <path class="cls-3" d="m402.68.75c12.61,17.26,26.1,38.37,36.44,61.99,10.34,23.61,17.52,49.73,17.52,77.02,0,10.65-1.09,21.48-3.52,32.42-4.66,20.97-13.03,37.01-23.51,50.75-15.72,20.6-36.21,35.98-55.96,54.8-19.74,18.81-38.72,41.08-51.28,75.41-8.91,24.35-12.53,49.11-12.53,73.28,0,45.96,13.07,89.81,27.77,124.78,14.7,34.97,31.03,61.08,37.56,71.52,22.39,35.81,40.16,51.25,55.49,65.03,7.67,6.89,14.72,13.36,21.47,21.78,6.75,8.42,13.22,18.78,19.7,33.47,13.83,31.37,20.98,67.17,20.98,103.43,0,61.99-20.88,125.26-64.81,169.95-15.13,15.4-29.61,25.14-43.52,31.97-20.86,10.24-40.49,13.92-59.2,20.19-18.7,6.27-36.47,15.18-53.37,35.86-23.96,29.31-34.42,67.76-34.42,109.48,0,76.57,35.2,164.21,87.16,227.11,32.5,39.33,59.54,54.37,82.6,68.08,11.53,6.86,22.05,13.38,31.82,22.45,9.76,9.07,18.77,20.69,27.27,37.78,14.86,29.91,20.64,61.54,20.64,92.66,0,52.05-16.18,102.64-33.04,141.19-16.86,38.55-34.38,65.05-37.01,68.93-21.64,31.89-44.43,55.07-60.34,69.67l.86.94c15.96-14.65,38.83-37.9,60.54-69.9,2.66-3.93,20.22-30.48,37.12-69.13,16.9-38.65,33.15-89.39,33.15-141.7,0-31.27-5.81-63.11-20.77-93.22-8.55-17.21-17.66-28.97-27.54-38.15-7.41-6.88-15.23-12.3-23.55-17.48-24.95-15.53-54.31-28.86-90.75-72.94-51.79-62.66-86.88-150.11-86.87-226.3,0-41.51,10.41-79.65,34.13-108.67,11.16-13.65,22.64-22.08,34.56-28.04,17.87-8.94,36.78-12.3,56.97-19.22,20.19-6.92,41.64-17.43,64.48-40.68,44.2-44.99,65.17-108.58,65.17-170.85,0-36.42-7.17-72.39-21.09-103.94-6.52-14.77-13.05-25.25-19.87-33.75-5.12-6.38-10.4-11.65-15.96-16.79-16.67-15.43-35.79-29.74-60.92-69.89-6.53-10.43-22.81-36.47-37.47-71.34-14.66-34.87-27.67-78.57-27.67-124.28,0-24.05,3.6-48.66,12.45-72.85,8.32-22.74,19.45-40.12,31.78-54.74,18.49-21.93,39.67-37.65,58.05-55.82,18.37-18.16,33.93-38.82,40.96-70.56,2.45-11.03,3.55-21.95,3.55-32.69,0-27.51-7.24-53.8-17.63-77.53C429.9,38.5,416.35,17.31,403.71,0l-1.03.75Z"/>
    </g>
  </g>
</svg>